<svg width="390" height="424" viewBox="0 0 390 424" fill="none" xmlns="http://www.w3.org/2000/svg">
<g clip-path="url(#clip0_1921_545)">
<path d="M390 0H0V424H390V0Z" fill="white"/>
<path d="M264.186 272.181C300.305 232.912 300.305 169.245 264.186 129.977C228.066 90.7086 169.505 90.7086 133.385 129.977C97.2658 169.245 97.2658 232.912 133.385 272.181C169.505 311.449 228.066 311.449 264.186 272.181Z" fill="#DC9118"/>
<path fill-rule="evenodd" clip-rule="evenodd" d="M176.787 95.3373C173.716 93.0333 170.879 90.5716 168.515 87.5298C164.785 82.7301 162.603 77.3419 163.002 70.9022C163.574 61.6446 171.305 53.324 179.546 53.7065C182.036 53.8227 183.251 53.112 184.731 51.0633C188.306 46.1169 193.39 43.5822 198.908 42.1236C206.856 40.0223 214.689 40.2589 222.24 44.0138C227.667 46.7139 231.591 51.0217 233.681 57.1706C233.958 57.9838 234.153 58.373 235.124 58.0457C245.404 54.5774 256.668 62.0584 258.641 73.6175C259.479 78.5249 258.888 83.2508 256.904 87.7342C256.362 88.9578 256.389 89.4921 257.49 90.4791C260.342 93.035 261.853 96.5356 262.14 100.57C262.628 107.413 260.702 113.29 255.698 117.602C251.041 121.614 245.826 121.354 240.541 119.17C239.628 118.792 238.775 118.246 237.884 117.807C237.586 117.66 237.255 117.168 236.926 117.718C236.521 118.389 235.994 118.992 235.84 119.805C235.825 119.875 236.195 120.093 236.407 120.143C240.986 121.245 243.337 126.806 241.426 132.263C240.259 135.6 237.998 137.919 235.249 139.717C233.521 140.849 231.664 141.666 229.734 142.311C228.591 142.692 227.467 142.962 226.298 142.534C225.611 142.283 225.305 142.464 225.207 143.302C224.98 145.218 224.689 147.126 224.369 149.027C224.249 149.743 224.446 149.981 225.081 150.172C226.698 150.661 228.274 151.315 229.892 151.809C230.986 152.143 231.478 152.837 231.664 154.047C232.147 157.206 232.772 160.338 233.253 163.498C233.385 164.365 233.733 164.654 234.456 164.872C242.787 167.387 251.095 169.985 259.436 172.452C261.211 172.977 262.404 173.982 263.234 175.715C264.663 178.698 265.699 181.853 266.786 184.985C269.256 192.109 271.424 199.363 274.637 206.158C275.255 207.466 275.96 208.731 276.716 209.95C277.261 210.828 277.918 211.615 278.871 212.07C282.194 213.662 284.319 216.221 284.123 220.399C283.915 224.802 285.121 228.766 286.887 232.646C287.836 234.732 288.426 237.006 289.244 239.166C291.924 246.245 290.633 252.964 287.527 259.406C284.205 266.295 278.88 271.069 272.848 274.994C267.693 278.349 262.201 280.897 256.486 282.874C255.473 283.225 254.862 283.753 254.752 284.905C254.742 285.007 254.721 285.107 254.696 285.205C253.158 291.24 253.121 291.27 247.522 292.706C244.063 293.592 240.617 294.534 237.149 295.375C233.283 296.313 236.958 308.408 235.423 310.487C235.179 310.817 233.349 301.23 232.84 301.426C223.05 305.202 213.144 309.325 202.163 309.325C185.991 309.325 170.776 304.866 157.501 297.02C157.164 296.82 156.984 299.886 156.649 299.682C156.381 299.519 155.955 296.086 155.688 295.92C151.602 293.377 147.71 290.507 144.04 287.346C143.424 286.814 141.019 293.842 140.416 293.294C141.386 283.323 143.506 274.253 144.841 264.395C145.092 262.544 145.009 260.703 144.677 258.928C143.738 253.895 144.548 249.005 145.426 244.1C145.692 242.608 145.932 241.111 146.247 239.236C143.995 241.884 142.055 244.348 139.942 246.619C134.098 252.895 127.366 257.798 119.932 261.579C116.44 263.357 113.246 262.873 110.237 260.268C104.398 255.212 99.7807 249.098 96.4742 241.812C94.8362 238.202 95.1755 234.502 95.9509 230.769C96.8713 226.337 98.3813 222.133 100.169 218.045C100.469 217.36 100.442 216.924 100.053 216.285C98.6278 213.951 97.3611 211.53 96.8525 208.717C96.5764 207.193 96.7964 205.807 97.4126 204.434C98.7534 201.447 100.543 198.774 102.307 196.082C102.601 195.633 102.897 195.186 103.254 194.642C99.6754 193.973 96.1888 193.397 92.731 192.66C85.4177 191.103 78.2417 189.057 71.6468 185.117C69.377 183.761 67.2492 182.191 65.6135 179.963C63.3219 176.839 63.4678 173.635 66.0737 170.817C68.6368 168.046 71.9269 166.682 75.2637 165.469C78.2378 164.387 81.2954 163.63 84.3881 163.087C85.1494 162.953 85.5012 162.602 85.8015 161.9C87.4762 157.984 89.4152 154.217 91.2787 150.405C92.9026 147.084 95.3627 144.913 98.4235 143.395C104.319 140.47 110.59 139.126 116.963 138.25C118.911 137.982 120.875 137.83 122.834 137.692C123.481 137.647 123.662 137.462 123.706 136.721C123.976 132.163 126.975 129.229 130.873 129.621C134.534 129.989 137.076 133.591 136.591 137.876C136.472 138.931 136.843 139.131 137.641 139.321C143.562 140.721 149.241 142.84 154.508 146.16C156.907 147.673 159.104 149.472 161.176 151.474C163.859 154.065 165.479 157.308 166.373 161.039C166.621 162.071 166.993 163.07 167.205 164.108C167.347 164.802 167.663 164.897 168.204 164.769C170.35 164.259 172.5 163.761 174.647 163.255C175.098 163.149 175.491 162.953 175.263 162.334C174.884 161.305 175.498 160.881 176.15 160.396C177.464 159.422 178.735 158.378 180.04 157.387C180.534 157.012 180.615 156.716 180.337 156.04C176.593 146.915 174.475 137.293 173.211 127.443C172.737 123.756 173.764 120.165 174.372 116.569C174.521 115.688 174.512 114.883 174.296 114.022C173.609 111.278 173.052 108.5 172.488 105.721C171.729 101.983 172.891 99.1567 175.4 96.7577C175.854 96.3219 176.28 95.8572 176.787 95.3373Z" fill="#000005"/>
<path fill-rule="evenodd" clip-rule="evenodd" d="M190.353 195.345C192.352 199.249 194.472 202.872 197.319 205.93C199.217 207.97 201.372 209.492 203.957 210.324C208.176 211.68 210.913 213.676 215.038 215.312C215.608 215.539 215.788 215.89 215.861 216.52C216.323 220.558 216.334 220.546 212.728 221.795C209.614 222.875 207.79 224.045 204.655 225.047C202.914 225.604 202.095 226.875 201.883 228.658C201.611 230.943 201.888 233.159 203.34 234.976C203.73 235.463 203.635 235.805 203.501 236.312C202.764 239.083 203.151 241.567 205.294 243.47C205.759 243.883 205.743 244.222 205.641 244.757C205.314 246.488 205.689 247.999 207.026 249.101C207.535 249.522 207.808 249.935 207.509 250.633C207.434 250.807 207.465 251.034 207.449 251.237C206.994 256.83 207.858 258.251 212.781 259.759C214.173 260.185 215.606 260.472 217.033 260.731C218.461 260.993 219.755 260.764 220.493 259.151C220.59 258.936 220.702 258.649 220.981 258.672C222.727 258.802 224.4 258.171 226.127 258.088C227.165 258.037 227.061 258.842 227.116 259.527C226.045 268.154 228.04 275.63 227.828 280.81C227.53 288.083 222.624 291.902 221.29 299.056C221.224 299.413 227.413 289.227 229.039 290.07C230.839 291.004 232.948 299.763 232.861 300.153C232.505 301.769 230.986 303.482 228.951 305.094C220.464 307.845 211.473 309.324 202.163 309.324C185.912 309.324 170.63 304.821 157.311 296.904C157.626 289.87 157.939 282.837 158.284 275.804C158.54 270.564 159.437 265.401 160.061 260.207C161.376 249.26 162.773 238.324 164.132 227.383C164.797 222.038 165.485 216.698 166.089 211.345C166.211 210.264 166.752 210.337 167.431 210.34C171.794 210.357 176.008 209.668 179.823 207.161C183.793 204.552 186.795 200.883 189.421 196.802C189.71 196.354 189.996 195.903 190.353 195.345Z" fill="white"/>
<path fill-rule="evenodd" clip-rule="evenodd" d="M257.427 175.586C252.269 181.048 250.222 184.08 249.336 187.824C250.137 186.672 250.712 185.856 251.278 185.033C253.273 182.134 255.341 179.306 258.022 177.097C259.55 175.839 259.646 175.839 260.513 177.763C262.242 181.601 263.492 185.65 264.865 189.645C267.295 196.727 269.531 203.901 273.065 210.486C271.285 209.737 270.212 208.333 266.22 201.697C266.885 204.827 268.226 207.567 270.217 209.973C272.21 212.38 274.814 213.804 277.39 215.209C279.653 216.44 281.025 217.966 280.912 220.961C280.822 223.381 280.922 225.873 281.492 228.241C282.701 233.268 282.706 238.6 284.762 243.412C284.893 243.718 284.86 244.107 284.918 244.567C285.405 242.828 285.11 241.204 284.808 239.586C284.511 238.001 284.191 236.421 284.148 234.741C284.633 236.094 285.301 237.405 285.567 238.806C286.184 242.048 286.442 245.355 286.417 248.669C286.377 253.682 284.319 257.781 281.27 261.344C275.959 267.551 269.64 272.006 262.022 274.107C260.054 274.649 259.755 274.818 257.73 274.36C256.701 274.126 256.268 273.718 256.33 272.458C256.713 264.677 255.094 256.896 254.448 249.121C254.094 244.868 252.967 240.861 251.407 236.974C251.225 236.517 251.058 236.051 250.849 235.502C254.518 235.332 257.989 234.493 261.483 233.824C267.754 232.624 273.08 234.886 277.927 238.995C278.105 239.146 278.275 239.308 278.731 239.722C278.166 238.183 277.437 237.253 276.57 236.417C275.223 235.116 273.645 234.229 272.011 233.458C271.395 233.168 270.997 232.821 270.959 232.032C270.868 230.201 272.453 228.084 274.093 227.782C275.377 227.547 276.672 227.587 278.321 227.579C277.249 226.627 276.267 226.716 275.371 226.671C272.143 226.506 269.272 227.81 266.36 229.154C262.089 231.123 257.656 231.32 253.232 229.663C251.24 228.917 249.932 227.235 248.777 225.404C242.61 215.61 241.909 205.245 246.028 194.374C246.118 194.14 246.209 193.906 246.311 193.677C246.428 193.412 246.67 193.118 246.338 192.885C245.967 192.624 245.88 193.078 245.747 193.283C242.19 198.721 239.571 204.632 238.163 211.147C237.995 211.923 237.866 212.708 237.656 213.474C237.601 209.281 237.339 205.069 239.034 201.002C237.905 201.656 237.446 202.705 237.243 204.668C237.098 206.063 237.055 207.486 236.533 208.957C236.324 206.916 236.133 205.036 235.941 203.156C235.047 207.909 234.827 212.674 235.06 217.425C235.229 220.859 234.952 222.576 233.127 225.393C232.529 224.808 232.191 224.04 231.837 223.3C230.392 220.281 229.358 218.307 228.058 215.213C226.823 212.27 225.723 209.439 226.365 206.284C226.629 204.983 227.173 203.34 225.996 202.423C224.76 201.459 223.382 202.426 222.192 203.087C219.694 204.472 218.113 206.696 217.401 209.971C216.513 206.503 215.725 203.323 214.562 200.272C213.523 197.54 212.309 194.922 210.687 192.531C209.379 190.607 210.183 185.786 212.061 184.172C213.863 182.621 215.88 181.42 217.854 180.155C221.841 177.599 225.919 175.201 229.625 172.159C230.82 171.177 232.005 170.168 232.779 168.727C232.994 168.327 233.215 168.163 233.679 168.306C241.579 170.739 249.479 173.152 257.427 175.586Z" fill="white"/>
<path fill-rule="evenodd" clip-rule="evenodd" d="M220.001 142.76C215.237 147.207 210.589 151.787 205.521 155.823C203.976 157.052 202.336 158.142 200.742 159.302C195.898 162.83 187.748 161.22 183.835 156.94C182.577 155.564 182 153.753 181.402 152.007C178.749 144.27 176.868 136.302 175.737 128.137C175.313 125.069 175.886 122.058 176.466 119.058C177.544 113.476 177.91 107.792 178.494 102.138C178.661 100.524 179.045 98.9381 179.253 97.3269C179.37 96.4153 179.838 95.9489 180.587 95.8039C192.411 93.5109 204.054 93.5355 215.252 99.078C218.111 100.493 220.781 102.257 223.348 104.227C224.082 104.792 224.181 105.305 224.012 106.217C222.696 113.307 222.428 120.448 223.482 127.605C223.8 129.763 224.185 129.819 225.715 128.414C227.443 126.825 228.696 124.758 230.34 123.089C230.818 122.603 231.332 122.161 231.83 121.697C232.274 121.282 232.621 121.103 232.931 121.906C233.146 122.462 233.697 122.628 234.243 122.584C237.858 122.294 240.562 126.085 239.293 130.671C238.612 133.13 237.136 134.916 235.316 136.421C233.199 138.171 230.768 139.221 228.232 139.977C227.126 140.307 226.136 139.768 225.195 139.134C223.964 138.305 223.039 138.77 222.982 140.318C222.809 144.967 221.639 149.453 221.135 154.046C220.931 155.9 220.472 157.738 220.827 159.635C220.925 160.153 220.502 160.448 220.249 160.789C218.084 163.701 215.463 166.072 212.596 168.229C215.221 162.926 216.821 157.226 218.321 151.484C217.569 152.284 217.373 153.375 217.017 154.371C215.343 159.054 213.807 163.802 211.254 168.054C210.16 169.878 208.868 171.413 207.102 172.492C205.553 173.437 204.025 174.436 202.568 175.536C200.27 177.275 197.67 177.632 194.878 177.817C195.051 176.461 195.619 175.239 195.296 173.817C194.441 174.368 194.424 175.421 193.962 176.156C193.648 176.658 193.902 177.692 193.057 177.649C192.187 177.605 191.101 177.488 190.678 176.591C189.16 173.373 187.073 170.364 187.168 166.426C187.652 166.337 187.883 166.779 188.187 167.014C190.236 168.593 192.463 169.724 194.943 170.219C196.679 170.566 198.253 170.261 199.678 168.99C207.948 161.615 214.542 152.718 220.001 142.76Z" fill="#EDCBAA"/>
<path fill-rule="evenodd" clip-rule="evenodd" d="M181.333 113.899C182.283 115.905 182.019 116.02 183.443 116.479C184.866 116.937 190.509 116.421 190.509 116.421C190.509 116.421 191.512 115.791 191.406 115.389C191.3 114.988 189.877 112.293 189.877 112.293L183.127 112.121C183.127 112.121 182.652 112.695 181.333 113.899Z" fill="white"/>
<path fill-rule="evenodd" clip-rule="evenodd" d="M203.694 115.448C204.486 117.11 206.594 118.142 206.594 118.142L213.212 118.192L215.875 116.537C215.875 116.537 213.608 114.187 212.395 113.671C211.181 113.155 206.224 112.926 205.592 113.041C204.958 113.154 203.694 115.448 203.694 115.448Z" fill="white"/>
<path fill-rule="evenodd" clip-rule="evenodd" d="M254.311 105.119C251.29 106.709 248.991 105.597 247.035 103.237C244.117 99.719 242.6 95.3909 241.202 91.0084C240.359 88.3669 239.741 85.6541 239.166 82.7489C238.438 83.8335 237.962 84.9469 237.114 85.75C235.822 86.9736 234.594 86.8871 233.459 85.4811C232.032 83.7114 232.177 81.6634 232.527 79.5579C232.945 77.0367 232.755 76.8188 230.473 77.3344C226.783 78.1688 223.261 77.3234 219.666 76.4508C211.795 74.5411 208.202 68.7348 206.881 60.6593C206.721 59.6773 206.572 58.6928 206.365 57.3657C204.145 61.4607 202.423 65.4259 200.98 69.5353C200.395 71.1966 199.472 72.5305 198.201 73.66C196.536 75.1389 194.541 74.4351 192.434 75.0236C194.836 72.0022 195.706 68.6187 196.543 65.1054C195.773 65.2139 195.734 65.8236 195.58 66.2409C193.702 71.3348 190.049 74.3571 185.378 75.6308C182.672 76.3685 179.933 75.2119 177.645 73.3123C176.101 72.0293 174.995 70.3104 173.893 68.5983C173.605 68.1506 173.324 67.6986 172.961 67.1245C172.891 69.7261 175.222 74.2027 178.091 77.1801C175.328 77.3861 172.639 75.5061 170.529 71.7486C167.418 79.4502 170.879 85.0215 175.318 90.6031C167.994 84.9367 163.735 76.2523 166.087 67.8173C167.904 61.2996 173.846 56.1615 179.636 56.2828C179.87 56.2879 180.104 56.293 180.337 56.3176C182.302 56.5338 182.302 56.5355 182.128 58.6301C181.795 62.6301 182.053 64.282 183.312 66.2061C183.603 66.1976 183.558 65.9407 183.535 65.7728C182.471 58.1433 185.16 52.3404 191.17 48.5702C200.903 42.4646 211.12 41.6641 221.451 46.5995C227.014 49.2571 230.653 53.9873 232 60.5686C232.442 62.7301 232.266 64.9248 232.112 67.1084C232.087 67.4569 231.917 67.9157 232.309 68.0479C232.888 68.243 232.839 67.5705 232.922 67.2695C233.312 65.8584 233.69 64.4295 233.649 62.9362C233.617 61.7999 234.105 61.2385 235.077 60.8654C241.047 58.569 246.369 59.9843 250.989 64.41C257.677 70.8158 257.989 80.1582 253.89 88.3525C253.564 89.0037 253.164 88.9969 252.635 88.9893C250.905 88.9639 249.252 89.32 247.372 90.2774C248.751 90.7455 249.868 90.6904 250.921 90.6455C253.807 90.5225 255.835 92.0743 257.458 94.3902C262.727 101.912 258.682 115.017 250.324 117.581C249.855 117.725 249.363 117.779 248.81 117.76C253.652 115.125 255.136 110.819 254.311 105.119Z" fill="white"/>
<path fill-rule="evenodd" clip-rule="evenodd" d="M138.436 172.752C116.416 172.405 109.705 171.369 89.9424 163.582C89.0727 163.239 89.0618 162.898 89.405 162.084C91.0383 158.201 92 155.683 93.9391 151.969C95.4242 149.125 97.7284 147.391 100.354 146.058C105.805 143.29 111.633 142.104 117.548 141.341C128.765 139.893 139.44 142.091 149.655 147.166C151.222 147.944 152.655 149.036 154.205 149.86C162.395 154.212 162.426 163.18 161.819 169.985C161.73 170.97 161.171 171.174 160.388 171.259C158.014 171.517 155.651 171.908 153.274 172.116C148.28 172.555 143.274 172.701 138.436 172.752Z" fill="#AFB0B0"/>
<path fill-rule="evenodd" clip-rule="evenodd" d="M104.261 199.283C106.467 203.297 109.796 205.376 113.534 207.415C113.253 206.526 112.785 206.207 112.393 205.842C110.685 204.255 108.961 202.687 107.26 201.092C106.944 200.797 106.685 200.423 106.426 200.064C104.761 197.748 105.551 195.582 108.229 195.105C108.552 195.048 108.873 194.983 109.517 194.86C107.997 197.048 109.461 198.201 110.627 199.416C114.421 203.369 118.53 206.883 122.954 209.98C125.352 211.659 127.702 211.949 130.385 210.773C134.119 209.135 137.752 207.306 141.233 205.116C141.628 204.868 142.019 204.61 142.577 204.25C142.476 208.849 142.433 213.243 141.68 217.594C141.533 218.442 141.005 218.907 140.365 218.966C137.217 219.254 134.452 220.756 131.624 222.074C130.342 222.673 129.07 223.301 127.815 223.994C130.327 223.702 132.726 222.926 135.119 222.083C136.15 221.718 137.456 220.645 138.19 221.353C138.772 221.913 137.953 223.514 137.684 224.627C137.151 226.835 136.544 229.02 135.927 231.201C135.179 233.84 133.754 236.006 131.956 237.932C129.222 240.863 126.568 243.888 123.397 246.287C122.859 246.695 122.353 247.184 122.866 247.897C123.383 248.615 123.959 248.119 124.458 247.736C127.766 245.193 130.587 242.066 133.399 238.93C133.758 238.53 134.1 238.113 134.53 237.757C133.546 240.744 131.491 243.033 130.028 245.737C131.435 245.133 132.379 243.977 133.258 242.771C135.294 239.979 136.597 236.802 137.368 233.344C138.203 229.592 139.121 225.862 139.934 222.105C140.134 221.181 140.793 220.891 141.378 220.595C142.672 219.942 143.217 218.856 143.43 217.4C143.991 213.569 144.131 209.709 144.215 205.841C144.228 205.231 144.246 204.621 144.304 204.015C144.486 202.105 144.285 200.436 142.281 199.736C141.704 199.535 141.621 198.81 141.28 198.491C143.701 196.389 146.532 196.59 149.353 196.698C148.887 201.934 148.524 207.171 147.936 212.399C146.576 224.45 141.471 234.431 134.261 243.38C130.931 247.514 127.294 251.232 122.578 253.411C118.803 255.156 114.873 255.877 110.802 254.711C109.327 254.29 108.071 253.506 107.031 252.227C104.229 248.783 101.73 245.126 99.7409 241.051C98.1497 237.79 98.4586 234.462 99.2167 231.099C99.8064 228.484 100.605 225.936 101.57 223.454C101.727 223.051 101.692 222.396 102.48 222.77C105.068 223.998 107.831 224.24 110.601 224.136C114.025 224.007 117.417 224.651 120.834 224.499C121.256 224.481 121.938 224.735 122.006 224.044C122.082 223.265 121.33 223.477 120.945 223.429C116.784 222.922 112.74 221.993 108.968 219.899C104.954 217.671 102.166 214.292 100.503 209.746C99.9063 208.112 99.868 206.652 100.736 205.106C101.829 203.163 102.938 201.241 104.261 199.283Z" fill="white"/>
<path fill-rule="evenodd" clip-rule="evenodd" d="M134.783 208.721C136.98 207.625 139.134 206.437 141.232 205.117C141.628 204.868 142.018 204.611 142.576 204.251C142.475 208.85 142.432 213.244 141.679 217.594C141.532 218.442 141.004 218.908 140.364 218.966C137.216 219.255 134.451 220.757 131.623 222.075C131.172 222.286 130.722 222.501 130.273 222.721C132.483 221.022 134.782 218.419 134.782 218.419V208.721H134.783ZM128.328 223.928C127.988 224.07 127.675 224.152 127.4 224.152C125.08 224.152 133.939 224.61 133.939 224.61L127 243.146C128.709 241.477 130.318 239.688 131.956 237.932C133.753 236.006 135.179 233.84 135.927 231.201C136.544 229.02 137.151 226.835 137.684 224.627C137.953 223.513 138.772 221.913 138.19 221.353C137.456 220.645 136.15 221.719 135.119 222.083C132.888 222.869 130.655 223.596 128.328 223.928ZM123.257 248.227L117.475 255.051C119.206 254.755 120.907 254.184 122.578 253.41C127.293 251.232 130.93 247.514 134.261 243.379C141.471 234.431 146.576 224.45 147.935 212.399C148.525 207.171 148.887 201.933 149.353 196.698C146.532 196.589 143.701 196.389 141.28 198.491C141.621 198.81 141.704 199.534 142.281 199.736C144.284 200.437 144.486 202.106 144.304 204.015C144.246 204.622 144.228 205.232 144.215 205.841C144.13 209.709 143.991 213.569 143.43 217.4C143.216 218.857 142.672 219.942 141.378 220.595C140.793 220.892 140.134 221.181 139.934 222.105C139.12 225.861 138.203 229.592 137.368 233.344C136.597 236.802 135.294 239.979 133.257 242.771C132.379 243.976 131.435 245.133 130.028 245.737C131.491 243.033 133.547 240.744 134.53 237.757C134.1 238.113 133.758 238.53 133.399 238.93C130.587 242.066 127.765 245.193 124.458 247.736C124.082 248.025 123.663 248.378 123.257 248.227Z" fill="#C4C4C4"/>
<path fill-rule="evenodd" clip-rule="evenodd" d="M155.221 219.831C153.392 223.436 152.127 227.086 150.173 230.362C152.72 219.131 151.063 207.96 150.036 196.655C155.643 196.283 161.414 195.904 167.376 194.746C165.903 197.161 164.648 199.432 163.71 201.887C163.191 203.246 162.674 204.608 162.095 205.937C161.742 206.751 161.415 207.635 160.464 207.899C159.969 208.037 159.818 208.457 159.902 208.968C159.995 209.533 160.43 209.638 160.853 209.699C161.733 209.826 162.616 210.017 163.497 210.013C164.408 210.011 164.568 210.379 164.45 211.29C163.798 216.277 163.195 221.27 162.578 226.261C161.218 237.253 159.834 248.241 158.511 259.239C157.801 265.137 156.801 271 156.541 276.959C156.265 283.281 155.986 289.602 155.704 295.924C150.992 294.301 146.365 293.846 142.7 290.689C144.206 283.863 146.833 273.601 147.881 266.408C148.937 269.326 149.394 272.022 149.662 274.78C149.935 277.608 149.383 280.304 148.702 283.003C150.132 280.609 150.896 278.008 150.967 275.164C151.066 271.231 150.105 267.515 149.035 263.821C147.461 258.383 147.093 252.892 148.212 247.281C149.134 242.663 149.939 238.018 150.761 233.376C150.862 232.799 151.105 232.338 151.361 231.857C153.1 228.586 154.527 225.178 155.26 221.462C155.345 221.025 155.55 220.603 155.221 219.831Z" fill="white"/>
<path fill-rule="evenodd" clip-rule="evenodd" d="M179.851 94.1036C180.873 89.1013 181.851 84.344 182.812 79.5825C182.938 78.9609 183.227 78.7166 183.814 78.5445C205.724 72.1141 227.801 80.2083 240.738 101.812C241.03 102.298 241.209 102.678 240.937 103.312C239.483 106.717 238.093 110.154 236.622 113.72C235.414 111.856 234.331 110.054 233.123 108.359C231.916 106.667 230.344 105.392 228.574 104.351C230.872 107.15 233.183 109.93 234.658 113.378C232.627 110.972 230.639 108.532 228.414 106.333C219.211 97.2276 208.315 92.8986 195.956 92.6137C190.607 92.489 185.312 92.9927 179.851 94.1036Z" fill="white"/>
<path fill-rule="evenodd" clip-rule="evenodd" d="M160.793 173.147C159.802 175.591 158.248 177.455 156.416 179.054C152.094 182.826 147.026 185.078 141.969 187.342C141.681 187.472 141.327 187.459 141.004 187.458C126.509 187.409 112.117 186.191 97.9243 182.852C94.4112 182.025 90.9347 181.001 87.7039 179.204C87.2468 178.95 86.7968 178.679 86.3647 178.378C84.0715 176.78 83.9404 176.423 84.832 173.706C85.5698 171.46 86.3662 169.236 87.1275 166.999C87.3272 166.413 87.5331 166.084 88.2335 166.378C100.645 171.586 113.636 173.441 126.812 174.137C137.808 174.717 148.799 174.751 159.745 173.153C160.057 173.107 160.378 173.147 160.793 173.147Z" fill="#AFB0B0"/>
<path fill-rule="evenodd" clip-rule="evenodd" d="M168.612 173.855C173.289 175.682 177.749 177.015 181.467 180.353C181.897 180.739 182.3 181.175 182.65 181.646C184.182 183.707 184.031 185.48 182.162 187.222C180.649 188.632 178.859 189.506 177.004 190.236C171.152 192.543 165.044 193.478 158.895 194.152C152.087 194.898 145.251 195.122 138.417 194.949C119.985 194.481 101.73 192.523 83.9528 186.839C79.8679 185.533 75.886 183.919 72.16 181.639C70.7708 180.789 69.4604 179.816 68.3466 178.551C66.2803 176.204 66.42 174.139 68.8161 172.138C70.3551 170.854 72.114 170.047 73.9251 169.335C77.6309 167.877 80.5894 167.062 84.5994 166.374C83.6876 169.165 82.8881 171.847 81.9295 174.461C81.3499 176.041 81.7602 177.215 82.7446 178.32C84.349 180.121 86.3903 181.13 88.4947 182.004C94.1178 184.337 100.876 185.882 106.791 186.86C119.217 188.914 131.725 189.81 144.289 189.623C150.934 189.524 157.576 189.217 164.081 187.512C165.767 187.07 167.416 186.5 168.843 185.368C170.046 184.413 170.582 183.282 170.147 181.556C169.534 179.123 169.151 176.621 168.612 173.855Z" fill="#AFB0B0"/>
<path fill-rule="evenodd" clip-rule="evenodd" d="M224.188 222.971C223.078 221.694 221.633 221.24 220.139 220.957C219.516 220.839 219.153 220.654 219.064 219.897C218.692 216.75 218.552 213.594 219.071 210.464C219.643 207.012 221.689 204.98 224.803 203.93C225.098 205.276 224.7 206.5 224.512 207.692C224.159 209.924 224.364 212.021 225.109 214.122C226.742 218.726 228.528 223.258 230.932 227.451C233.639 232.171 235.236 237.298 236.125 242.732C236.304 243.832 236.395 244.973 236.737 246.012C237.26 247.602 236.715 248.705 235.753 249.818C234.553 251.21 233.45 252.7 231.847 253.813C231.981 253.016 232.692 252.551 232.425 251.764C223.178 257.272 221.866 257.315 215.407 255.758C215.334 256.322 215.977 256.324 216.104 256.855C214.498 256.333 211.882 256.412 210.843 255.061C210.216 254.247 210.415 251.954 210.826 250.859C211.33 249.512 215.385 249.008 216.803 248.835C218.385 248.642 218.756 248.195 218.478 246.561C215.528 247.535 212.509 248.613 209.474 248.346C208.567 248.266 207.368 243.115 208.66 242.901C210.699 242.563 213.804 241.474 215.734 240.713C217.352 240.075 218.108 237.972 214.169 239.312C212.201 239.981 208.591 241.554 206.469 241.353C205.706 241.281 205.328 238.375 205.422 237.108C205.495 236.155 206.053 235.921 206.657 235.711C208.925 234.921 211.195 234.13 213.466 233.346C215.026 232.808 217.448 229 213.087 231.139C211.006 232.16 208.872 233.062 205.876 233.64C204.29 233.401 203.837 230.553 203.784 228.964C203.745 227.781 204.153 227.115 205.255 226.753C208.608 225.651 211.911 224.374 215.269 223.293C217.909 222.442 220.614 222.335 223.315 223.057C223.571 223.124 223.819 223.358 224.188 222.971Z" fill="#D98B58"/>
<path fill-rule="evenodd" clip-rule="evenodd" d="M236.106 233.696C239.472 241.589 241.943 249.675 241.699 258.486C242.128 257.573 242.211 252.152 241.924 250.553C240.96 245.187 240.55 239.662 238.16 234.692C237.991 234.339 237.939 233.918 237.843 233.526C237.696 232.925 237.848 232.714 238.468 232.807C241.614 233.274 244.786 233.579 247.79 234.838C248.484 235.129 248.933 235.564 249.269 236.297C251.84 241.902 252.965 247.861 253.151 254.087C253.421 263.2 253.385 272.299 252.177 281.343C251.895 283.453 251.233 285.475 250.54 287.475C250.342 288.04 250.091 288.43 249.516 288.574C245.932 289.472 242.352 290.39 238.51 291.368C242.227 271.832 240.521 252.699 236.106 233.696Z" fill="white"/>
<path fill-rule="evenodd" clip-rule="evenodd" d="M227.923 154.909C227.013 157.115 225.728 158.992 224.531 160.922C223.329 162.864 221.9 164.611 220.434 166.325C223.847 163.708 226.277 160.114 228.646 155.991C229.045 158.356 229.346 160.292 229.71 162.213C229.847 162.944 229.576 163.31 229.062 163.7C225.838 166.139 222.447 168.315 219.358 170.967C218.121 172.027 216.884 173.086 215.714 174.259C220.691 171.612 225.405 168.474 230.074 165.212C230.761 167.464 230.764 167.47 228.94 168.543C220.19 173.687 211.428 178.808 202.696 183.987C200.713 185.163 198.774 186.106 196.538 184.884C200.118 182.341 204.265 180.856 207.958 178.407C205.046 179.199 202.246 180.298 199.555 181.726C198.256 182.416 196.946 183.087 195.663 183.811C195.11 184.122 194.653 184.1 194.372 183.5C194.058 182.829 194.756 182.807 195.021 182.624C200.422 178.891 206.085 175.614 211.341 171.621C215.111 168.756 218.739 165.716 221.656 161.798C223.137 159.807 224.396 157.657 224.913 155.124C225.141 154.002 225.582 153.915 226.412 154.339C226.867 154.574 227.369 154.706 227.923 154.909Z" fill="#C10016"/>
<path fill-rule="evenodd" clip-rule="evenodd" d="M215.948 211.533C209.801 202.904 204.546 193.883 195.197 189.431C197.302 189.046 199.279 189.791 203.881 192.699C202.855 190.877 199.601 188.907 196.746 188.379C196.469 188.328 196.19 188.285 195.913 188.242C195.48 188.174 195.267 187.978 195.333 187.434C195.403 186.846 195.729 186.807 196.125 186.864C201.77 187.678 206.948 189.521 210.236 195.055C213.139 199.939 214.629 205.442 215.948 211.533Z" fill="#C10016"/>
<path fill-rule="evenodd" clip-rule="evenodd" d="M177.378 164.17C179.178 166.789 180.302 169.816 182.132 172.399C181.264 170.31 180.403 168.217 179.522 166.134C179.308 165.628 179.014 165.164 178.785 164.665C177.82 162.556 177.823 162.552 179.542 161.173C180.329 160.542 181.119 159.918 182.057 159.172C184.262 167.499 187.767 175.071 191.688 182.446C190.864 182.936 190.454 182.632 189.93 181.909C188.518 179.959 187.186 177.919 185.354 176.341C186.469 178.734 188.065 180.79 189.486 183.051C187.168 182.787 177.262 167.25 177.378 164.17Z" fill="#C10016"/>
<path fill-rule="evenodd" clip-rule="evenodd" d="M212.013 208.868C209.06 206.98 205.905 205.8 202.847 204.362C198.521 202.33 195.625 198.728 193.996 193.925C193.898 193.639 193.777 193.353 193.742 193.056C193.67 192.424 193.836 191.777 194.212 191.357C194.607 190.916 195.073 191.439 195.457 191.629C199.986 193.871 203.462 197.55 206.656 201.559C208.53 203.912 210.234 206.427 212.013 208.868Z" fill="#C10016"/>
<path fill-rule="evenodd" clip-rule="evenodd" d="M164.96 207.223C172.324 201.338 179.051 194.65 188.119 191.835C186.823 193.943 185.199 195.617 183.702 197.401C182.756 198.527 181.653 199.501 180.741 200.655C177.238 205.085 172.405 206.182 167.466 207.02C166.707 207.148 165.953 207.497 164.96 207.223Z" fill="#C10016"/>
<path fill-rule="evenodd" clip-rule="evenodd" d="M116.942 202.593C118.651 203.49 120.24 203.24 121.916 202.462C123.687 201.639 125.55 202.238 127.252 202.912C129.384 203.757 131.444 203.819 133.523 202.917C134.255 202.599 134.525 202.758 134.612 203.607C134.881 206.246 134.534 206.928 132.277 207.969C126.76 210.508 126.34 210.47 121.434 206.69C119.881 205.491 118.376 204.221 116.849 202.983C116.879 202.853 116.911 202.724 116.942 202.593Z" fill="#EDCBAA"/>
<path fill-rule="evenodd" clip-rule="evenodd" d="M164.439 205.167C165.652 201.279 167.269 197.675 169.754 194.576C170.074 194.176 170.48 194.128 170.874 194.034C173.802 193.342 176.685 192.497 179.437 191.177C179.547 191.124 179.696 191.171 179.949 191.171C179.404 191.676 178.951 192.097 178.498 192.518C181.193 191.264 183.929 190.252 186.939 190.132C178.297 193.127 171.623 199.559 164.439 205.167Z" fill="#C10016"/>
<path fill-rule="evenodd" clip-rule="evenodd" d="M238.805 223.229C241.011 226.777 244.203 229.075 246.698 232.467C243.324 231.545 240.127 231.191 236.933 230.825C236.239 230.744 235.929 230.53 236.2 229.697C236.899 227.541 237.725 225.453 238.805 223.229Z" fill="#DC9118"/>
<path fill-rule="evenodd" clip-rule="evenodd" d="M231.915 270.316C232.087 277.774 232.585 284.608 234.107 291.315C234.194 291.697 234.53 292.352 233.984 292.513C233.354 292.698 233.341 291.912 233.219 291.491C232.168 287.828 231.745 284.038 231.401 280.243C230.788 273.503 230.619 266.738 230.559 259.969C230.553 259.451 230.308 258.761 231.169 258.776C231.993 258.789 231.655 259.495 231.673 259.911C231.832 263.57 232.001 267.231 231.915 270.316Z" fill="white"/>
<path fill-rule="evenodd" clip-rule="evenodd" d="M130.21 133.086C132.145 133.087 132.276 135.256 131.825 137.304C131.695 137.897 131.46 138.127 130.861 138.037C129.249 137.792 129.211 137.831 127.591 137.66C127.119 137.609 126.984 137.404 126.95 136.909C126.824 135.024 128.456 133.085 130.21 133.086Z" fill="#AFB0B0"/>
<path fill-rule="evenodd" clip-rule="evenodd" d="M174.802 174.031C172.951 173.305 170.854 172.485 168.761 171.655C168.293 171.47 167.12 168.573 167.4 168.116C167.747 167.547 168.276 167.754 168.739 168.046C169.793 168.712 170.8 169.464 171.661 170.401C172.782 171.623 173.84 172.914 174.802 174.031Z" fill="white"/>
<path fill-rule="evenodd" clip-rule="evenodd" d="M135.362 206.446C136.209 204.715 136.85 203.391 137.507 202.078C137.611 201.868 137.82 201.516 137.922 201.539C139.386 201.866 140.882 201.682 142.397 201.811C140.357 203.747 138.013 204.94 135.362 206.446Z" fill="white"/>
<path fill-rule="evenodd" clip-rule="evenodd" d="M190.819 188.687C191.005 187.53 191.314 186.419 191.908 185.429C192.132 185.056 192.403 184.592 192.896 184.734C193.378 184.873 193.662 185.303 193.719 185.857C193.89 187.503 193.179 188.908 192.652 190.36C192.541 190.664 192.284 190.672 192.089 190.489C191.555 189.988 190.666 189.768 190.819 188.687Z" fill="#C10016"/>
<path fill-rule="evenodd" clip-rule="evenodd" d="M181.646 190.101C182.933 188.979 184.197 187.919 185.016 186.291C185.397 185.534 186.418 185.694 187.187 185.646C187.549 185.624 187.425 185.974 187.417 186.201C187.395 186.808 187.348 187.413 187.348 188.02C187.348 188.41 187.346 188.687 186.861 188.707C185.045 188.785 183.364 189.506 181.646 190.101Z" fill="#C10016"/>
<path fill-rule="evenodd" clip-rule="evenodd" d="M190.594 189.132C189.552 187.962 189.186 186.801 189.484 185.513C189.728 184.46 190.668 184.592 191.585 184.448C190.909 185.91 190.537 187.349 190.594 189.132Z" fill="#C10016"/>
<path fill-rule="evenodd" clip-rule="evenodd" d="M170.582 250.358C170.516 252.299 169.02 253.805 167.248 253.719C165.565 253.637 164.147 252.012 164.176 250.199C164.206 248.321 165.767 246.679 167.465 246.739C169.22 246.801 170.648 248.458 170.582 250.358Z" fill="#000005"/>
<path fill-rule="evenodd" clip-rule="evenodd" d="M175.948 216.731C175.936 218.721 174.551 220.21 172.736 220.18C171.033 220.154 169.644 218.621 169.622 216.745C169.599 214.822 171.059 213.191 172.797 213.197C174.581 213.205 175.96 214.753 175.948 216.731Z" fill="#000005"/>
<path fill-rule="evenodd" clip-rule="evenodd" d="M165.049 292.395C163.237 292.369 161.862 290.812 161.932 288.865C162 286.97 163.363 285.56 165.127 285.563C166.959 285.566 168.33 287.06 168.307 289.027C168.284 290.992 166.9 292.422 165.049 292.395Z" fill="#000005"/>
<path fill-rule="evenodd" clip-rule="evenodd" d="M235.626 171.856C235.822 171.462 236.103 171.671 236.356 171.735C240.502 172.782 244.566 174.118 248.515 175.855C248.86 176.006 249.187 176.206 249.516 176.4C249.883 176.617 250.352 176.829 250.193 177.398C250.031 177.974 249.531 177.846 249.121 177.794C247.855 177.632 246.66 177.163 245.497 176.645C242.344 175.241 239.214 173.773 236.08 172.317C235.899 172.233 235.592 172.224 235.626 171.856Z" fill="#000005"/>
<path fill-rule="evenodd" clip-rule="evenodd" d="M194.04 146.45C192.012 146.447 190.353 146.197 188.739 145.638C187.464 145.196 187.284 144.658 188.172 143.652C189.328 142.343 189.701 140.961 188.99 139.24C188.456 137.949 188.048 136.598 187.594 135.269C187.408 134.722 186.973 134.169 187.5 133.587C187.936 133.106 188.46 133.342 188.949 133.465C191.36 134.069 193.767 134.666 196.241 134.915C199.691 135.265 203.043 134.837 206.302 133.566C206.832 133.359 207.41 132.996 207.864 133.527C208.301 134.039 207.999 134.661 207.776 135.232C205.728 140.475 202.656 144.535 197.312 145.981C196.128 146.3 194.929 146.485 194.04 146.45Z" fill="#000005"/>
<path fill-rule="evenodd" clip-rule="evenodd" d="M200.233 105.251C204.165 105.346 208.066 104.651 211.998 104.915C215.597 105.158 217.82 107.689 217.834 111.908C215.402 108.036 211.979 108.338 208.518 108.734C206.891 108.92 205.262 109.087 203.617 108.943C201.096 108.725 200.526 108.14 200.233 105.251Z" fill="#000005"/>
<path fill-rule="evenodd" clip-rule="evenodd" d="M230.115 129.018C231.597 128.596 232.816 128.686 233.61 130.061C234.156 131.008 233.943 131.884 233.105 132.79C232.986 131.846 233.164 130.881 232.334 130.428C231.855 130.165 231.326 130.221 230.834 130.444C230.14 130.758 229.789 131.032 230.473 131.917C231.79 133.625 231.069 135.677 229.119 136.071C228.602 136.176 228.053 136.26 227.879 135.49C227.744 134.885 228.018 134.5 228.531 134.333C228.936 134.202 229.424 134.171 229.399 133.554C229.376 132.968 228.931 132.647 228.5 132.493C227.489 132.135 227.387 131.464 227.701 130.486C228.307 128.598 229.043 126.795 230.371 125.362C231.775 123.85 233.666 123.343 235.104 124.114C236.842 125.047 237.355 126.715 237.297 128.68C237.237 130.684 236.438 132.392 235.466 134.034C235.112 134.632 234.638 134.958 234.069 134.547C233.531 134.16 233.715 133.573 234.019 133.066C234.584 132.129 235.083 131.163 235.384 130.077C235.605 129.278 235.686 128.478 235.565 127.666C235.285 125.786 233.836 125.054 232.339 126.035C231.349 126.685 230.683 127.644 230.115 129.018Z" fill="#000005"/>
<path fill-rule="evenodd" clip-rule="evenodd" d="M205.669 117.535C206.023 117.575 206.376 117.616 206.904 117.676C206.348 116.497 206.037 115.359 206.058 114.066C205.122 114.244 204.963 115.149 204.504 115.713C203.966 116.374 203.545 117.624 202.654 117.252C201.759 116.879 201.706 115.638 201.788 114.25C202.128 114.901 202.331 115.291 202.523 115.66C202.848 115.642 202.976 115.416 203.062 115.184C204 112.651 205.783 111.946 208.14 112.278C210.266 112.577 212.439 112.559 214.445 113.549C214.952 113.799 214.971 113.885 214.735 114.424C214.603 114.724 214.883 114.841 215.018 115.008C215.665 115.801 216.385 116.535 216.608 117.758C215.94 117.149 215.268 116.543 214.604 115.931C213.704 115.101 212.722 114.416 211.568 114.114C211.251 114.031 210.751 113.862 210.57 114.329C210.386 114.807 210.799 115.158 211.133 115.222C212.702 115.525 212.863 115.99 212.752 117.124C212.729 117.364 212.439 117.787 212.556 117.969C212.776 118.313 214.055 117.97 213.796 118.142C213.118 118.593 210.348 118.924 209.775 118.89C208.345 118.807 206.88 118.729 205.669 117.535Z" fill="#000005"/>
<path fill-rule="evenodd" clip-rule="evenodd" d="M179.717 115.36C180.055 114.04 181.046 113.38 181.845 112.339C181.383 112.422 181.02 112.486 180.709 112.543C180.525 112.429 180.529 112.376 180.635 112.3C181.521 111.66 182.517 111.414 183.556 111.378C184.91 111.33 186.267 111.276 187.621 111.329C190.349 111.435 191.239 112.172 192.139 114.901C192.388 115.66 191.462 117.162 190.741 117.169C190.547 117.171 190.353 117.149 190.293 116.915C190.226 116.66 190.284 116.424 190.465 116.221C191.727 114.801 189.971 114.202 189.685 113.231C189.438 112.391 188.399 112.377 187.587 112.461C187.432 112.477 187.216 112.631 187.159 112.779C187.056 113.049 187.259 113.248 187.453 113.395C188.109 113.89 188.882 113.785 189.585 113.867C189.93 114.768 188.613 115.328 189.222 116.318C189.32 116.48 188.793 116.624 188.552 116.683C187.219 117.01 185.869 117.122 184.517 116.831C184.008 116.721 183.345 116.684 184.21 115.89C184.675 115.465 183.978 114.986 183.862 114.515C183.422 112.742 183.198 112.678 181.724 113.789C181.046 114.298 180.385 114.835 179.717 115.36Z" fill="#000005"/>
<path fill-rule="evenodd" clip-rule="evenodd" d="M194.21 110.286C194.252 110.739 194.246 111.205 194.346 111.644C194.837 113.803 194.63 115.862 193.694 117.845C192.715 119.918 191.883 122.088 190.761 124.063C189.801 125.748 190.045 127.19 190.874 128.716C191.148 129.219 191.428 129.719 191.609 130.287C190.217 129.178 189.169 127.802 188.668 125.951C187.708 127.193 188.456 128.203 189.12 129.229C187.851 128.936 187.159 127.695 187.581 126.352C187.758 125.79 188.049 125.222 188.417 124.786C191.13 121.577 192.063 117.43 193.35 113.507C193.894 111.85 193.204 109.998 192.999 108.242C192.953 107.845 192.874 107.451 192.886 107.027C193.55 108.03 193.561 109.345 194.234 110.333L194.21 110.286Z" fill="#000005"/>
<path fill-rule="evenodd" clip-rule="evenodd" d="M178.891 110.018C179.339 105.821 180.464 104.684 183.806 104.926C185.893 105.077 187.96 105.517 190.044 105.746C190.722 105.82 190.657 106.186 190.563 106.652C190.353 107.699 189.694 108.154 188.756 108.214C187.535 108.293 186.333 108.084 185.148 107.827C182.84 107.325 180.674 107.269 178.891 110.018Z" fill="#000005"/>
<path fill-rule="evenodd" clip-rule="evenodd" d="M196.564 148.688C195.381 150.881 193.881 151.65 191.915 151.396C190.323 151.191 189.283 150.28 188.56 148.314C191.18 149.844 193.778 149.67 196.564 148.688Z" fill="#000005"/>
<path fill-rule="evenodd" clip-rule="evenodd" d="M199.274 130.456C201.646 129.104 200.231 127.08 200.055 125.196C201.188 126.41 201.848 128.119 201.545 129.063C201.205 130.126 200.314 130.318 199.274 130.456Z" fill="#000006"/>
<path fill-rule="evenodd" clip-rule="evenodd" d="M186.9 157.96C184.599 157.113 183.043 155.068 182.852 152.659C183.619 154.975 185.593 156.156 186.9 157.96Z" fill="#000508"/>
<path fill-rule="evenodd" clip-rule="evenodd" d="M181.007 139.051C181.122 138.596 180.758 138.033 181.312 137.936C181.813 137.848 181.799 138.418 181.917 138.78C182.149 139.491 182.474 140.173 182.464 140.954C182.461 141.268 182.418 141.589 182.079 141.664C181.72 141.743 181.403 141.587 181.325 141.189C181.181 140.451 181.099 139.698 181.007 139.051Z" fill="#020307"/>
<path fill-rule="evenodd" clip-rule="evenodd" d="M213.292 139.843C213.03 140.654 212.797 141.478 212.491 142.267C212.376 142.566 212.123 142.908 211.725 142.685C211.367 142.486 211.339 142.106 211.481 141.761C211.782 141.02 212.12 140.297 212.458 139.574C212.587 139.298 212.588 138.775 213.073 139.014C213.386 139.17 213.319 139.516 213.292 139.843Z" fill="#121212"/>
<path fill-rule="evenodd" clip-rule="evenodd" d="M194.235 110.333C194.324 109.622 193.772 109.006 193.992 108.132C194.819 109.189 195.522 110.152 195.178 111.633C194.426 111.398 194.56 110.659 194.21 110.288C194.21 110.286 194.235 110.333 194.235 110.333Z" fill="#171717"/>
<path fill-rule="evenodd" clip-rule="evenodd" d="M198.76 129.311C198.023 129.567 197.303 129.816 196.537 130.083C196.907 128.385 197.555 128.179 198.76 129.311Z" fill="#000006"/>
<path fill-rule="evenodd" clip-rule="evenodd" d="M252.854 70.5674C254.797 72.9418 254.92 75.7928 254.657 78.709C254.46 80.8774 254.153 83.0389 253.432 85.0902C253.277 85.5295 253.11 86.2783 252.592 86.1477C251.937 85.9815 252.159 85.1979 252.265 84.7112C252.833 82.0968 253.528 79.5206 253.635 76.8027C253.717 74.6649 253.598 72.5805 252.854 70.5674Z" fill="#000004"/>
<path fill-rule="evenodd" clip-rule="evenodd" d="M198.643 46.8012C194.817 47.9799 192.207 50.7995 189.642 53.7183C189.104 54.3306 188.334 55.6534 187.774 55.0768C187.088 54.3696 188.24 53.4402 188.731 52.7533C190.856 49.7853 193.478 47.5873 196.997 46.9267C197.318 46.8665 197.645 46.8317 197.971 46.8046C198.194 46.7867 198.419 46.8012 198.643 46.8012Z" fill="#000005"/>
<path fill-rule="evenodd" clip-rule="evenodd" d="M198.055 69.1096C198.01 71.3594 196.438 73.4743 194.375 74.084C195.468 72.1141 197.223 71.0142 198.055 69.1096Z" fill="#000003"/>
<path fill-rule="evenodd" clip-rule="evenodd" d="M139.924 208.394C140.613 208.421 140.924 208.35 141.073 208.696C141.209 209.013 141.101 209.32 140.866 209.506C139.039 210.95 136.944 211.764 134.817 212.491C134.588 212.57 134.377 212.412 134.225 212.189C134.037 211.913 134.154 211.64 134.338 211.534C136.3 210.409 138.277 209.315 139.924 208.394Z" fill="#000005"/>
<path fill-rule="evenodd" clip-rule="evenodd" d="M149.506 256.64C149.506 255.578 149.502 254.516 149.509 253.455C149.509 253.216 149.474 252.904 149.795 252.878C150.095 252.855 150.175 253.141 150.186 253.388C150.328 256.747 151.143 259.983 151.692 263.268C151.743 263.578 151.87 264.033 151.451 264.192C150.956 264.38 150.832 263.886 150.655 263.554C149.509 261.409 149.455 259.018 149.506 256.64Z" fill="#000004"/>
<path fill-rule="evenodd" clip-rule="evenodd" d="M184.508 79.9597C185.644 83.3288 183.919 89.342 181.424 90.3732C183.238 87.0914 183.701 83.6349 184.508 79.9597Z" fill="#000004"/>
<path fill-rule="evenodd" clip-rule="evenodd" d="M205.159 90.714C206.394 87.4823 207.91 84.3625 208.07 80.4473C209.293 83.0913 207.556 89.113 205.159 90.714Z" fill="#000003"/>
<path fill-rule="evenodd" clip-rule="evenodd" d="M239.771 103.13C239.091 104.245 235.023 109.205 234.57 109.47C234.413 107.565 237.391 103.936 239.771 103.13Z" fill="#000003"/>
<path fill-rule="evenodd" clip-rule="evenodd" d="M224.756 96.6491C224.154 94.7623 225.282 91.5603 227.046 90.2942C226.174 92.3302 225.887 94.6114 224.756 96.6491Z" fill="#000004"/>
<path fill-rule="evenodd" clip-rule="evenodd" d="M165.289 191.615C164.531 191.5 163.652 191.385 162.782 191.223C162.542 191.179 162.154 191.201 162.175 190.764C162.193 190.396 162.515 190.29 162.782 190.248C164.12 190.042 165.459 189.832 166.803 189.684C171.55 189.165 175.847 187.373 179.735 184.38C179.993 184.181 180.28 183.595 180.636 184.052C180.979 184.494 180.43 184.745 180.202 185.005C176.175 189.59 170.969 191.046 165.289 191.615Z" fill="#000005"/>
<path fill-rule="evenodd" clip-rule="evenodd" d="M70.359 176.747C72.3238 178.234 74.2699 179.608 76.3954 180.633C77.801 181.31 79.2338 181.919 80.655 182.556C81.5169 182.943 82.3835 183.328 83.1331 183.946C83.3764 184.147 83.7875 184.304 83.6549 184.739C83.5098 185.221 83.0902 184.967 82.8055 184.942C82.3905 184.907 81.9615 184.823 81.577 184.657C77.5701 182.925 73.7411 180.855 70.5439 177.622C70.3847 177.461 70.1578 177.313 70.359 176.747Z" fill="#000005"/>
<path fill-rule="evenodd" clip-rule="evenodd" d="M229.938 231.892C230.165 231.978 230.326 231.983 230.375 232.065C232.073 235.042 233.214 238.23 233.356 241.767C233.376 242.249 233.629 243.092 232.951 243.151C232.367 243.202 232.319 242.354 232.218 241.846C231.885 240.16 231.685 238.44 231.308 236.768C230.945 235.161 230.424 233.596 229.938 231.892Z" fill="#000004"/>
<path fill-rule="evenodd" clip-rule="evenodd" d="M240.873 288.469C243.605 287.386 246.338 286.305 249.067 285.211C249.356 285.097 249.644 285.035 249.824 285.327C250.07 285.729 249.765 285.977 249.516 286.212C248.598 287.074 247.461 287.425 246.328 287.707C244.565 288.15 242.78 288.479 241.004 288.857C240.961 288.727 240.916 288.599 240.873 288.469Z" fill="#000004"/>
<path fill-rule="evenodd" clip-rule="evenodd" d="M250.194 283.179C248.44 284.611 246.683 284.831 244.845 285.488C246.104 284.391 248.683 283.227 250.194 283.179Z" fill="#242626"/>
<path fill-rule="evenodd" clip-rule="evenodd" d="M168.916 250.208C168.799 251.164 168.365 251.846 167.427 251.867C166.491 251.889 165.915 251.237 165.892 250.275C165.869 249.308 166.447 248.631 167.356 248.597C168.283 248.562 168.753 249.243 168.916 250.208Z" fill="#C4C4C4"/>
<path fill-rule="evenodd" clip-rule="evenodd" d="M172.77 218.364C171.818 218.223 171.307 217.627 171.34 216.642C171.374 215.653 171.945 215.013 172.86 215.065C173.75 215.115 174.314 215.752 174.274 216.761C174.236 217.761 173.647 218.264 172.77 218.364Z" fill="#C4C4C4"/>
<path fill-rule="evenodd" clip-rule="evenodd" d="M165.085 290.637C164.15 290.481 163.596 289.886 163.645 288.887C163.691 287.975 164.263 287.336 165.112 287.348C166.009 287.362 166.617 287.971 166.602 289.004C166.586 290.032 165.982 290.536 165.085 290.637Z" fill="#C4C4C4"/>
<path fill-rule="evenodd" clip-rule="evenodd" d="M195.945 144.441C195.665 144.469 194.971 144.58 194.276 144.595C193.829 144.605 193.2 144.962 192.97 144.531C192.69 144.01 193.091 143.357 193.335 142.845C194.513 140.375 199.421 139.427 201.349 141.234C201.861 141.713 201.489 141.844 201.194 142.103C200.192 142.979 198.072 143.977 195.945 144.441Z" fill="#C10016"/>
<path fill-rule="evenodd" clip-rule="evenodd" d="M189.629 135.507C194.023 136.618 198.291 137.29 202.674 136.487C199.026 139.42 190.772 138.938 189.629 135.507Z" fill="white"/>
<path fill-rule="evenodd" clip-rule="evenodd" d="M89.8872 176.634C90.707 174.196 91.4667 171.771 92.2522 169.404C93.8801 169.968 94.9604 170.361 95.6663 170.626C95.0165 172.985 94.3512 175.508 93.5712 178.223C93.1679 179.328 92.0159 179.87 90.9987 179.431C89.9808 178.994 89.4832 177.742 89.8872 176.634ZM94.1757 164.009C97.1342 156.443 101.153 149.932 109.532 146.158C112.886 144.648 112.944 144.916 116.619 144.405L113.248 146.141C103.482 151.294 99.9251 157.15 97.3206 165.041L94.1757 164.009Z" fill="#20201E"/>
<path fill-rule="evenodd" clip-rule="evenodd" d="M183.811 116.564C183.669 116.54 183.545 116.512 183.443 116.48C182.052 116.032 182.271 115.911 181.397 114.036C180.833 114.471 180.277 114.919 179.717 115.36C180.055 114.04 181.046 113.38 181.845 112.339C181.383 112.422 181.02 112.486 180.709 112.543C180.525 112.429 180.529 112.376 180.635 112.3C181.521 111.66 182.518 111.415 183.556 111.378C184.91 111.33 186.267 111.276 187.621 111.329C190.349 111.435 191.24 112.172 192.139 114.901C192.388 115.66 191.462 117.162 190.741 117.169C190.547 117.171 190.353 117.149 190.293 116.915C190.249 116.747 190.259 116.586 190.323 116.439C190.077 116.46 189.604 116.498 189.014 116.538C188.864 116.602 188.672 116.653 188.551 116.681C187.219 117.008 185.868 117.12 184.517 116.829C184.23 116.766 183.893 116.728 183.811 116.564ZM188.756 108.214C187.534 108.293 186.333 108.084 185.148 107.827C182.84 107.325 180.674 107.27 178.891 110.018C178.988 109.105 179.118 108.337 179.295 107.696C179.933 105.391 181.191 104.737 183.806 104.926C185.893 105.077 187.96 105.518 190.044 105.746C190.336 105.778 190.491 105.864 190.564 105.989C190.661 106.154 190.617 106.387 190.563 106.652C190.353 107.7 189.694 108.154 188.756 108.214ZM192.977 105.819C192.095 102.098 191.645 97.4963 192.458 94.3977C188.528 94.5224 184.568 95.032 180.587 95.8037C179.837 95.9487 179.37 96.4151 179.253 97.3267C179.045 98.9371 178.66 100.524 178.494 102.137C178.292 104.093 178.116 106.052 177.928 108.008C177.572 111.71 177.172 115.406 176.466 119.057C175.886 122.057 175.312 125.068 175.737 128.136C176.868 136.301 178.748 144.268 181.401 152.006C182 153.752 182.577 155.563 183.835 156.939C184.96 158.17 186.435 159.18 188.082 159.91C187.954 158.558 187.96 156.687 188.361 154.261C188.685 152.303 189.415 151.254 190.126 150.695C189.628 150.311 189.214 149.77 188.864 149.04C187.407 148.184 186.569 147.009 186.569 146.119C186.569 145.585 187.061 145.091 187.628 144.578C187.669 144.318 187.85 144.014 188.172 143.65C188.777 142.964 189.168 142.257 189.3 141.494C189.285 140.973 189.249 140.37 189.162 139.715C189.114 139.559 189.056 139.399 188.989 139.237C188.456 137.947 188.047 136.595 187.593 135.266C187.508 135.014 187.369 134.761 187.296 134.504C185.949 132.067 187.14 131.442 188.044 131.442C188.993 131.442 191.103 132.359 193.845 132.588C196.04 132.772 199.383 129.504 200.63 128.191C200.623 128.02 200.603 127.847 200.575 127.672C198.869 127.709 193.607 127.771 190.892 127.199C190.633 127.145 190.409 127.076 190.216 126.997C190.329 127.568 190.559 128.135 190.873 128.714C191.147 129.217 191.427 129.716 191.608 130.284C190.216 129.175 189.168 127.8 188.667 125.948C187.707 127.191 188.455 128.2 189.119 129.227C187.85 128.933 187.158 127.692 187.581 126.349C187.757 125.787 188.048 125.219 188.416 124.783C191.13 121.574 192.062 117.428 193.349 113.504C193.893 111.847 193.203 109.995 192.998 108.24C192.952 107.842 192.873 107.448 192.885 107.024C193.491 107.939 193.553 109.112 194.069 110.062C194.011 109.518 193.904 108.996 193.739 108.508C193.466 107.702 193.207 106.79 192.977 105.819ZM181.917 138.78C182.149 139.491 182.474 140.173 182.465 140.954C182.461 141.268 182.418 141.589 182.079 141.664C181.72 141.743 181.403 141.587 181.325 141.189C181.181 140.45 181.1 139.697 181.007 139.051C181.122 138.596 180.758 138.033 181.312 137.936C181.813 137.848 181.799 138.418 181.917 138.78ZM196.536 130.082C196.907 128.385 197.555 128.179 198.759 129.31C198.022 129.566 197.302 129.816 196.536 130.082ZM182.853 152.66C183.619 154.975 185.594 156.157 186.9 157.96C184.599 157.114 183.043 155.068 182.853 152.66Z" fill="#D98B58"/>
<path fill-rule="evenodd" clip-rule="evenodd" d="M213.209 231.08C217.402 229.072 215.012 232.813 213.466 233.346C213.09 233.476 212.713 233.606 212.337 233.736C212.155 234.406 212.083 235.243 212.304 236.305C212.648 237.967 213.133 238.953 213.549 239.531C213.77 239.451 213.977 239.377 214.169 239.312C218.108 237.972 217.352 240.075 215.734 240.713C215.248 240.906 214.686 241.118 214.087 241.334C213.758 242.555 213.428 244.598 214.414 245.822C215.016 246.57 215.512 247.07 215.89 247.4C216.757 247.134 217.621 246.843 218.478 246.56C218.753 248.182 218.392 248.633 216.84 248.829C217.084 249.955 217.887 251.879 220.53 252.358C224.327 253.045 233.187 247.541 233.187 247.541L235.993 241.96C235.081 236.812 233.509 231.945 230.932 227.449C228.528 223.257 226.741 218.725 225.108 214.12C224.364 212.019 224.158 209.922 224.511 207.69C224.699 206.499 225.097 205.274 224.802 203.929C221.688 204.979 219.643 207.01 219.07 210.463C218.551 213.593 218.693 216.748 219.063 219.895C219.152 220.652 219.515 220.837 220.139 220.955C221.632 221.238 223.078 221.693 224.188 222.97C223.819 223.356 223.57 223.123 223.315 223.056C220.613 222.335 217.909 222.441 215.269 223.292C214.066 223.679 212.871 224.092 211.676 224.511C211.013 227.566 212.366 230.463 213.148 231.029C213.17 231.047 213.19 231.063 213.209 231.08ZM231.308 236.768C230.946 235.161 230.424 233.596 229.938 231.892C230.165 231.978 230.326 231.983 230.375 232.065C232.073 235.042 233.214 238.23 233.357 241.766C233.376 242.249 233.629 243.092 232.951 243.151C232.367 243.202 232.319 242.354 232.218 241.846C231.885 240.16 231.685 238.441 231.308 236.768Z" fill="#EDCBAA"/>
<path fill-rule="evenodd" clip-rule="evenodd" d="M222.745 213.487C222.047 210.545 222.577 207.446 223.796 204.321C221.249 205.453 219.579 207.399 219.07 210.463C218.551 213.593 218.693 216.749 219.063 219.896C219.152 220.653 219.515 220.838 220.139 220.956C221.431 221.201 222.688 221.574 223.722 222.497C223.601 220.08 223.319 215.906 222.745 213.487Z" fill="#D98B58"/>
<path fill-rule="evenodd" clip-rule="evenodd" d="M229.038 290.07C227.412 289.226 221.224 299.412 221.289 299.055C222.623 291.901 227.529 288.083 227.827 280.809C228.039 275.63 226.045 268.153 227.115 259.526C227.061 258.84 227.164 258.036 226.127 258.087C224.399 258.17 222.727 258.801 220.98 258.671C220.701 258.649 220.589 258.936 220.492 259.15C219.756 260.764 218.461 260.993 217.032 260.73C215.605 260.47 214.172 260.184 212.781 259.758C211.281 259.298 210.158 258.847 209.333 258.283C209.79 261.849 212.013 263.114 215.782 264.285C221.688 266.12 221.688 267.266 221.688 267.266L221.056 287.218L210.509 307.17L210.234 308.454L210.127 308.96C212.428 308.748 233.222 305.641 233.597 303.936C233.685 303.545 230.839 291.002 229.038 290.07Z" fill="#C4C4C4"/>
<path fill-rule="evenodd" clip-rule="evenodd" d="M278.932 258.675C272.634 261.592 264.39 262.183 255.916 262.07C256.276 265.532 256.502 268.994 256.331 272.457C256.27 273.717 256.703 274.125 257.731 274.359C259.756 274.817 260.056 274.648 262.023 274.106C265.754 273.076 269.176 271.482 272.319 269.394C275.59 267.22 278.561 264.509 281.271 261.343C283.228 259.056 284.776 256.549 285.645 253.722C283.825 255.851 281.546 257.463 278.932 258.675Z" fill="#C4C4C4"/>
<path fill-rule="evenodd" clip-rule="evenodd" d="M238.296 203.226C237.431 206.594 237.614 210.04 237.659 213.471C237.869 212.706 237.998 211.92 238.166 211.145C239.19 206.405 240.854 201.987 243.055 197.837L238.296 203.226Z" fill="#C4C4C4"/>
<path fill-rule="evenodd" clip-rule="evenodd" d="M236.536 208.954C237.058 207.484 237.101 206.061 237.246 204.666C237.256 204.567 237.267 204.471 237.279 204.376L236.194 205.604C236.304 206.69 236.417 207.796 236.536 208.954Z" fill="#C4C4C4"/>
<path fill-rule="evenodd" clip-rule="evenodd" d="M235.063 217.423C234.887 213.842 234.969 210.254 235.403 206.669C234.662 208.09 232.063 213.026 229.234 217.875C230.055 219.656 230.851 221.233 231.84 223.299C232.194 224.039 232.533 224.806 233.13 225.392C234.955 222.575 235.232 220.857 235.063 217.423Z" fill="#C4C4C4"/>
<path fill-rule="evenodd" clip-rule="evenodd" d="M250.921 90.6496C249.868 90.6945 248.75 90.7496 247.371 90.2815C249.252 89.3241 250.905 88.968 252.635 88.9934C253.164 89.0011 253.564 89.0078 253.89 88.3566C257.989 80.1624 257.677 70.8199 250.989 64.4142C249.339 62.8326 247.598 61.6353 245.771 60.8542C250.271 75.3542 248.773 84.8908 244.527 86.697C243.019 87.3381 241.595 87.7579 240.346 88.0318C240.606 89.0384 240.888 90.028 241.202 91.0083C242.599 95.3907 244.116 99.7181 247.034 103.237C248.991 105.596 251.289 106.708 254.311 105.119C255.136 110.818 253.652 115.125 248.81 117.764C249.363 117.783 249.855 117.729 250.324 117.585C258.682 115.021 262.727 101.916 257.458 94.3943C255.835 92.0785 253.807 90.5266 250.921 90.6496ZM253.431 85.0901C253.276 85.5294 253.109 86.2781 252.591 86.1475C251.936 85.9813 252.158 85.1978 252.264 84.711C252.832 82.0966 253.527 79.5204 253.634 76.8026C253.717 74.6639 253.598 72.5795 252.854 70.5664C254.797 72.9408 254.92 75.7918 254.657 78.708C254.459 80.8772 254.152 83.0388 253.431 85.0901Z" fill="#C4C4C4"/>
<path fill-rule="evenodd" clip-rule="evenodd" d="M229.431 88.126C232.272 91.0406 232.968 93.1504 231.659 96.7875C230.506 99.9929 228.495 103.114 227.095 105.069C227.538 105.479 227.978 105.9 228.414 106.332C230.638 108.531 232.626 110.971 234.657 113.377C233.183 109.929 230.872 107.149 228.573 104.35C230.343 105.391 231.915 106.665 233.123 108.358C234.332 110.054 235.414 111.856 236.621 113.719C238.093 110.153 239.483 106.716 240.937 103.311C241.208 102.677 241.029 102.298 240.738 101.811C237.496 96.3957 233.677 91.8283 229.431 88.126ZM234.57 109.47C234.413 107.565 237.392 103.936 239.771 103.13C239.091 104.246 235.023 109.205 234.57 109.47Z" fill="#C4C4C4"/>
<path fill-rule="evenodd" clip-rule="evenodd" d="M143.697 166.046C143.697 158.957 142.453 152.375 132.217 141.508C130.503 141.246 128.777 141.068 127.038 140.976C123.917 140.811 120.754 140.928 117.548 141.341C111.633 142.105 105.805 143.291 100.353 146.059C97.7278 147.392 95.4237 149.126 93.9385 151.97C92.0002 155.684 91.0377 158.203 89.4044 162.085C89.062 162.899 89.0721 163.24 89.9418 163.583C98.5538 166.976 104.688 169.088 110.691 170.419C118.461 172.142 126.012 172.556 138.435 172.753C139.885 172.738 141.35 172.714 142.825 172.676C143.286 171.639 143.697 169.692 143.697 166.046ZM113.249 146.142C103.483 151.294 99.9258 157.151 97.3214 165.041L94.1757 164.01C97.1342 156.443 101.153 149.933 109.532 146.159C112.886 144.649 112.944 144.917 116.619 144.406L113.249 146.142Z" fill="white"/>
<path fill-rule="evenodd" clip-rule="evenodd" d="M126.811 174.136C121.16 173.838 115.543 173.325 109.991 172.427C102.599 171.232 95.3207 169.351 88.2328 166.377C87.5332 166.084 87.3272 166.413 87.1268 166.999C86.3647 169.236 85.5683 171.459 84.8312 173.705C83.9397 176.422 84.0707 176.78 86.3639 178.377C86.7961 178.677 87.2461 178.949 87.7032 179.203C90.934 181 94.4104 182.025 97.9235 182.851C100.827 183.535 103.738 184.129 106.656 184.642C118.008 186.64 129.473 187.417 141.003 187.457C141.037 187.457 141.072 187.457 141.107 187.458C141.236 186.54 141.455 184.94 141.798 182.329C142.274 178.713 141.916 175.743 141.709 174.488C136.746 174.548 131.78 174.398 126.811 174.136ZM95.6662 170.627C95.0165 172.985 94.3511 175.509 93.5711 178.223C93.1679 179.329 92.0158 179.871 90.9987 179.432C89.9816 178.993 89.4839 177.741 89.888 176.634C90.7078 174.195 91.4675 171.771 92.2529 169.404C93.8808 169.968 94.9603 170.361 95.6662 170.627Z" fill="white"/>
<path fill-rule="evenodd" clip-rule="evenodd" d="M70.9019 170.72C71.3753 176.868 81.233 183.387 105.989 188.074C107.202 188.304 108.45 188.529 109.736 188.75C141.399 194.185 173.062 191.315 182.039 180.915C181.856 180.718 181.664 180.53 181.467 180.352C177.749 177.014 173.289 175.681 168.612 173.854C169.151 176.62 169.534 179.122 170.148 181.556C170.581 183.282 170.046 184.413 168.843 185.368C167.416 186.5 165.766 187.069 164.081 187.512C157.576 189.217 150.934 189.524 144.289 189.623C131.725 189.81 119.217 188.914 106.791 186.86C106.605 186.829 106.418 186.798 106.231 186.766C100.452 185.784 93.9415 184.264 88.4948 182.004C86.3911 181.131 84.3498 180.121 82.7446 178.32C81.7602 177.215 81.35 176.04 81.9295 174.461C82.8881 171.847 83.6876 169.164 84.5994 166.374C80.5895 167.063 77.6301 167.877 73.9251 169.335C72.8893 169.742 71.8714 170.18 70.9019 170.72Z" fill="white"/>
<path fill-rule="evenodd" clip-rule="evenodd" d="M162.095 205.938C162.675 204.609 163.191 203.246 163.71 201.888C164.648 199.433 165.903 197.162 167.376 194.747C161.414 195.905 155.643 196.284 150.036 196.655C151.063 207.961 152.72 219.132 150.173 230.363C152.127 227.087 153.393 223.437 155.221 219.832C155.55 220.603 155.346 221.024 155.257 221.465C154.524 225.18 153.098 228.589 151.359 231.859C151.102 232.34 150.86 232.801 150.758 233.379C149.936 238.021 149.132 242.665 148.21 247.284C147.091 252.894 147.459 258.386 149.033 263.824C150.103 267.519 151.064 271.234 150.965 275.167C150.895 278.011 150.13 280.612 148.699 283.006C149.381 280.306 149.933 277.611 149.659 274.783C149.392 272.025 148.935 269.328 147.879 266.41C146.832 273.602 143.994 286.618 141.222 292.755C143.353 292.501 144.51 292.599 147.326 292.235C150.362 279.365 152.056 267.66 151.713 264.487C151.37 261.315 151.681 264.19 151.664 264.037C151.617 264.101 151.55 264.155 151.451 264.193C150.956 264.381 150.832 263.887 150.655 263.555C149.51 261.41 149.455 259.019 149.507 256.64C149.507 255.579 149.503 254.517 149.509 253.455C149.51 253.216 149.474 252.905 149.795 252.879C150.095 252.856 150.175 253.142 150.186 253.388C150.304 256.176 150.885 258.88 151.393 261.596C150.477 253.27 149.232 240.149 152.979 234.445C157.197 228.024 157.831 213.118 157.831 213.118C157.831 213.118 158.701 213.524 164.163 213.503C164.257 212.767 164.352 212.029 164.449 211.293C164.568 210.381 164.408 210.013 163.496 210.016C162.615 210.019 161.732 209.828 160.852 209.702C160.43 209.641 159.994 209.536 159.901 208.97C159.817 208.46 159.968 208.039 160.463 207.902C161.415 207.636 161.742 206.752 162.095 205.938Z" fill="#C4C4C4"/>
<path fill-rule="evenodd" clip-rule="evenodd" d="M189.421 196.802C186.795 200.884 183.793 204.552 179.823 207.161C176.008 209.668 171.794 210.358 167.431 210.34C166.752 210.336 166.211 210.263 166.089 211.345C166.009 212.059 165.927 212.773 165.844 213.485C167.166 213.464 168.703 213.419 170.487 213.345C181.667 212.887 190.105 201.191 190.105 201.191C190.105 201.191 190.105 201.191 194.113 206.923C198.002 212.489 206.861 214.596 216.057 218.491C216.026 217.966 215.951 217.322 215.86 216.52C215.788 215.89 215.608 215.539 215.037 215.312C210.913 213.676 208.175 211.68 203.957 210.324C201.372 209.493 199.216 207.971 197.318 205.93C194.472 202.871 192.352 199.248 190.352 195.345C189.996 195.903 189.71 196.354 189.421 196.802Z" fill="#C4C4C4"/>
<path fill-rule="evenodd" clip-rule="evenodd" d="M168.761 171.655C170.854 172.485 172.951 173.304 174.802 174.031C173.84 172.914 172.782 171.623 171.661 170.402C170.8 169.464 169.793 168.712 168.739 168.046C168.277 167.754 167.747 167.546 167.4 168.116C167.12 168.574 168.293 171.471 168.761 171.655Z" fill="#C4C4C4"/>
<path fill-rule="evenodd" clip-rule="evenodd" d="M206.586 172.81C211.023 165.324 214.409 156.249 216.937 148.035C212.113 155.874 206.458 162.943 199.679 168.989C198.254 170.26 196.679 170.565 194.944 170.218C192.464 169.723 190.236 168.592 188.187 167.013C187.884 166.779 187.654 166.336 187.169 166.425C187.074 170.363 189.161 173.372 190.679 176.59C191.101 177.487 192.187 177.604 193.058 177.649C193.902 177.692 193.648 176.657 193.962 176.155C194.424 175.42 194.441 174.367 195.296 173.816C195.62 175.238 195.051 176.461 194.879 177.816C197.671 177.631 200.27 177.275 202.569 175.535C203.863 174.558 205.215 173.66 206.586 172.81Z" fill="#D98B58"/>
<path fill-rule="evenodd" clip-rule="evenodd" d="M214.468 100.803C217.731 102.885 220.535 106.295 222.546 109.227C222.831 109.644 223.102 110.051 223.355 110.444C223.394 110.132 223.435 109.819 223.478 109.507C223.631 108.409 223.809 107.314 224.012 106.217C224.181 105.305 224.083 104.792 223.347 104.227C220.781 102.257 218.111 100.493 215.252 99.0779C207.823 95.4018 200.199 94.1527 192.457 94.3969C192.402 94.6097 192.351 94.8285 192.307 95.0541C200.651 94.4283 208.652 97.0884 214.468 100.803Z" fill="#D98B58"/>
<path fill-rule="evenodd" clip-rule="evenodd" d="M233.611 130.061C234.157 131.008 233.944 131.884 233.106 132.79C232.987 131.846 233.165 130.881 232.335 130.428C231.856 130.165 231.327 130.221 230.835 130.444C230.141 130.758 229.79 131.032 230.474 131.917C231.562 133.327 231.261 134.97 230.025 135.723C231.301 135.629 232.663 134.914 233.736 134.032C233.691 133.723 233.832 133.379 234.02 133.066C234.586 132.129 235.084 131.163 235.385 130.077C235.607 129.278 235.688 128.478 235.566 127.666C235.287 125.786 233.838 125.054 232.34 126.035C231.349 126.685 230.683 127.644 230.115 129.018C231.598 128.595 232.816 128.685 233.611 130.061Z" fill="#D98B58"/>
<path fill-rule="evenodd" clip-rule="evenodd" d="M253.279 260.485C251.819 261.673 246.917 262.469 240.355 262.264C240.874 271.888 240.372 281.578 238.51 291.368C242.353 290.39 245.932 289.472 249.516 288.574C250.091 288.43 250.342 288.04 250.54 287.475C251.233 285.475 251.895 283.453 252.177 281.343C253.101 274.415 253.339 267.457 253.279 260.485ZM244.844 285.487C246.104 284.391 248.683 283.227 250.194 283.179C248.44 284.61 246.684 284.831 244.844 285.487ZM240.873 288.469C243.605 287.386 246.338 286.305 249.067 285.211C249.356 285.097 249.644 285.035 249.824 285.327C250.07 285.729 249.765 285.977 249.516 286.212C248.599 287.074 247.461 287.425 246.328 287.707C244.565 288.15 242.78 288.48 241.004 288.857C240.961 288.727 240.916 288.599 240.873 288.469Z" fill="#C4C4C4"/>
<path fill-rule="evenodd" clip-rule="evenodd" d="M188.12 191.835C179.051 194.651 172.325 201.338 164.961 207.223C165.954 207.497 166.708 207.148 167.467 207.02C172.407 206.182 177.239 205.085 180.742 200.655C181.654 199.501 182.757 198.527 183.703 197.401C185.199 195.617 186.823 193.943 188.12 191.835Z" fill="#911B19"/>
<path fill-rule="evenodd" clip-rule="evenodd" d="M193.997 193.925C195.626 198.728 198.522 202.33 202.848 204.362C205.906 205.799 209.061 206.98 212.014 208.868C210.235 206.427 208.531 203.912 206.657 201.56C203.462 197.551 199.987 193.872 195.458 191.629C195.074 191.439 194.608 190.916 194.213 191.358C193.837 191.778 193.672 192.425 193.743 193.057C193.777 193.353 193.899 193.639 193.997 193.925Z" fill="#911B19"/>
<path fill-rule="evenodd" clip-rule="evenodd" d="M85.6175 180.901C83.3493 179.211 77.4634 175.764 77.8588 171.979C81.7729 175.818 81.5467 175.799 86.6596 178.652C87.289 179.123 87.9754 179.831 87.5418 180.515C87.1089 181.2 86.247 181.373 85.6175 180.901Z" fill="#20201E"/>
<path fill-rule="evenodd" clip-rule="evenodd" d="M169.962 219.656C174.333 218.218 173.98 218.521 177.292 215.93L177.031 217.121C175.661 220.595 172.568 220.145 169.962 219.656Z" fill="#20201E"/>
<path fill-rule="evenodd" clip-rule="evenodd" d="M164.477 253.597C168.848 252.16 168.496 252.462 171.807 249.87L171.546 251.062C170.176 254.537 167.084 254.086 164.477 253.597Z" fill="#20201E"/>
<path fill-rule="evenodd" clip-rule="evenodd" d="M162.368 292.354C166.739 290.917 166.386 291.218 169.698 288.627L169.437 289.818C168.067 293.293 164.975 292.842 162.368 292.354Z" fill="#20201E"/>
<path d="M150.208 362.472C149.141 362.472 148.053 362.131 146.944 361.448C145.877 360.808 144.789 359.763 143.68 358.312C142.315 356.435 141.163 354.643 140.224 352.936C139.285 351.229 138.517 349.736 137.92 348.456C137.365 347.176 136.939 346.259 136.64 345.704C136.64 345.704 136.747 345.576 136.96 345.32C137.173 345.021 137.429 344.744 137.728 344.488C138.069 344.189 138.347 344.04 138.56 344.04C140.565 344.04 142.357 344.019 143.936 343.976C145.557 343.891 146.987 343.635 148.224 343.208C149.504 342.739 150.635 341.949 151.616 340.84C152.597 339.731 153.429 338.152 154.112 336.104C154.325 335.592 154.453 335.08 154.496 334.568C154.581 334.013 154.624 333.48 154.624 332.968C154.624 331.517 154.261 330.237 153.536 329.128C152.811 328.019 151.765 327.379 150.4 327.208C150.229 327.165 150.037 327.144 149.824 327.144C149.611 327.144 149.397 327.144 149.184 327.144C148.373 327.144 147.477 327.251 146.496 327.464C145.557 327.677 144.853 328.083 144.384 328.68C143.317 330.088 142.293 331.688 141.312 333.48C140.331 335.229 139.392 337.021 138.496 338.856C137.6 340.648 136.747 342.333 135.936 343.912C135.723 344.339 135.317 345.107 134.72 346.216C134.123 347.283 133.461 348.52 132.736 349.928C132.011 351.293 131.328 352.659 130.688 354.024C130.048 355.389 129.536 356.605 129.152 357.672C128.811 358.739 128.725 359.464 128.896 359.848C128.939 359.891 128.96 359.955 128.96 360.04C128.96 360.168 128.896 360.232 128.768 360.232C128.427 360.232 128.085 360.147 127.744 359.976C127.403 359.805 126.997 359.72 126.528 359.72C126.101 359.72 125.675 359.827 125.248 360.04C124.821 360.211 124.267 360.531 123.584 361C122.901 361.469 122.133 361.853 121.28 362.152C121.195 362.195 121.067 362.216 120.896 362.216C120.597 362.216 120.363 362.131 120.192 361.96C120.021 361.832 120.021 361.725 120.192 361.64C121.131 361.469 121.941 361.128 122.624 360.616C123.307 360.061 123.861 359.379 124.288 358.568C125.184 357.075 126.059 355.581 126.912 354.088C127.808 352.552 128.661 351.016 129.472 349.48C130.453 347.603 131.456 345.725 132.48 343.848C133.504 341.928 134.528 340.029 135.552 338.152C136.533 336.403 137.408 334.717 138.176 333.096C138.944 331.475 139.52 330.301 139.904 329.576C140.203 329.021 140.715 328.531 141.44 328.104C142.208 327.635 142.955 327.272 143.68 327.016C143.424 327.016 143.168 327.016 142.912 327.016C142.656 326.973 142.379 326.952 142.08 326.952C140.757 326.952 139.307 327.037 137.728 327.208C136.192 327.336 134.677 327.549 133.184 327.848C131.733 328.147 130.453 328.552 129.344 329.064C128.235 329.576 127.488 330.195 127.104 330.92C126.933 331.304 126.784 331.688 126.656 332.072C126.528 332.456 126.464 332.84 126.464 333.224C126.464 334.205 126.805 334.909 127.488 335.336C127.531 335.336 127.552 335.379 127.552 335.464C127.552 335.549 127.467 335.635 127.296 335.72C127.168 335.805 127.061 335.827 126.976 335.784C126.549 335.571 126.059 335.059 125.504 334.248C124.992 333.395 124.651 332.691 124.48 332.136C124.352 331.624 124.288 331.155 124.288 330.728C124.288 329.619 124.651 328.765 125.376 328.168C126.101 327.528 127.019 327.08 128.128 326.824C129.237 326.525 130.368 326.355 131.52 326.312C132.715 326.227 133.76 326.184 134.656 326.184C136.021 326.184 137.643 326.184 139.52 326.184C141.397 326.141 143.125 326.12 144.704 326.12C145.088 326.12 145.515 326.12 145.984 326.12C146.453 326.077 146.944 326.056 147.456 326.056C148.608 326.056 149.803 326.12 151.04 326.248C152.277 326.376 153.408 326.653 154.432 327.08C155.456 327.507 156.245 328.168 156.8 329.064C157.525 330.259 157.888 331.624 157.888 333.16C157.888 335.507 157.269 337.469 156.032 339.048C155.605 339.603 155.136 340.136 154.624 340.648C154.112 341.16 153.515 341.651 152.832 342.12C151.723 342.888 150.4 343.549 148.864 344.104C147.328 344.616 145.728 345 144.064 345.256C142.443 345.512 140.949 345.683 139.584 345.768C140.139 346.963 140.971 348.563 142.08 350.568C143.232 352.573 144.619 354.579 146.24 356.584C147.093 357.651 147.968 358.397 148.864 358.824C149.76 359.251 150.635 359.464 151.488 359.464C152.853 359.464 154.133 359.059 155.328 358.248C156.565 357.437 157.675 356.499 158.656 355.432C159.68 354.323 160.491 353.363 161.088 352.552C161.216 352.339 161.323 352.232 161.408 352.232C161.536 352.232 161.6 352.36 161.6 352.616C161.6 352.957 161.472 353.299 161.216 353.64C159.253 356.328 157.376 358.483 155.584 360.104C153.792 361.683 152 362.472 150.208 362.472ZM164.324 361.512C162.575 361.512 161.359 361.171 160.676 360.488C159.993 359.805 159.652 358.973 159.652 357.992C159.652 356.755 159.972 355.432 160.612 354.024C161.295 352.616 161.935 351.421 162.532 350.44C163.215 349.416 164.132 348.349 165.284 347.24C166.436 346.131 167.695 345.192 169.06 344.424C170.425 343.656 171.748 343.272 173.028 343.272C174.137 343.272 174.905 343.549 175.332 344.104C175.759 344.616 175.972 345.235 175.972 345.96C175.972 347.283 175.567 348.371 174.756 349.224C173.988 350.077 173.028 350.781 171.876 351.336C170.724 351.848 169.615 352.275 168.548 352.616C167.908 352.787 167.161 352.957 166.308 353.128C165.455 353.299 164.644 353.384 163.876 353.384C163.577 354.152 163.343 354.899 163.172 355.624C163.001 356.349 162.916 357.011 162.916 357.608C162.916 358.333 163.087 358.931 163.428 359.4C163.812 359.869 164.431 360.104 165.284 360.104C165.625 360.104 166.031 360.061 166.5 359.976C166.969 359.891 167.481 359.763 168.036 359.592C169.316 359.165 170.575 358.483 171.812 357.544C173.049 356.605 174.18 355.603 175.204 354.536C176.271 353.427 177.081 352.509 177.636 351.784C177.764 351.912 177.828 352.061 177.828 352.232C177.828 352.445 177.679 352.787 177.38 353.256C176.527 354.451 175.417 355.688 174.052 356.968C172.687 358.248 171.172 359.336 169.508 360.232C167.844 361.085 166.116 361.512 164.324 361.512ZM164.388 352.104C164.943 352.147 165.561 352.147 166.244 352.104C166.969 352.019 167.673 351.869 168.356 351.656C170.105 351.144 171.364 350.333 172.132 349.224C172.943 348.072 173.348 347.048 173.348 346.152C173.348 345.64 173.241 345.213 173.028 344.872C172.815 344.531 172.473 344.36 172.004 344.36C170.767 344.36 169.657 344.829 168.676 345.768C167.695 346.664 166.841 347.709 166.116 348.904C165.391 350.099 164.815 351.165 164.388 352.104ZM180.454 362.024C179.686 362.024 178.875 361.917 178.022 361.704C177.168 361.491 176.4 361.149 175.718 360.68C175.078 360.168 174.651 359.485 174.438 358.632C174.395 358.504 174.373 358.312 174.373 358.056C174.373 357.459 174.502 356.797 174.758 356.072C175.056 355.347 175.419 354.835 175.846 354.536C176.016 354.451 176.144 354.451 176.23 354.536C176.358 354.621 176.379 354.707 176.294 354.792C176.251 354.92 176.187 355.091 176.102 355.304C176.016 355.475 175.952 355.667 175.91 355.88C175.782 356.989 176.016 357.971 176.614 358.824C176.87 359.165 177.168 359.485 177.51 359.784C177.894 360.083 178.256 360.339 178.598 360.552C178.896 360.723 179.259 360.851 179.686 360.936C180.112 360.979 180.539 361 180.966 361C181.648 361 182.31 360.915 182.95 360.744C183.59 360.573 184.059 360.296 184.358 359.912C184.912 359.229 185.19 358.461 185.19 357.608C185.19 356.968 185.019 356.285 184.678 355.56C184.336 354.835 183.803 354.067 183.078 353.256C182.608 352.744 182.16 352.189 181.734 351.592C181.307 350.995 181.03 350.355 180.902 349.672C180.859 349.544 180.816 349.416 180.774 349.288C180.774 349.16 180.774 349.032 180.774 348.904C180.219 349.715 179.643 350.483 179.046 351.208C178.491 351.891 178 352.488 177.574 353C177.403 353.256 177.254 353.384 177.126 353.384C177.04 353.384 176.998 353.299 176.998 353.128C176.998 352.744 177.168 352.339 177.51 351.912C177.851 351.528 178.235 351.059 178.661 350.504C179.088 349.907 179.43 349.437 179.686 349.096C180.411 348.029 180.944 347.197 181.286 346.6C181.67 345.96 182.075 345.384 182.502 344.872C182.971 344.317 183.547 343.869 184.23 343.528C184.955 343.187 185.702 343.016 186.47 343.016C187.366 343.016 188.176 343.165 188.902 343.464C189.67 343.72 190.075 344.403 190.118 345.512C190.118 346.024 190.011 346.557 189.798 347.112C189.627 347.624 189.435 348.115 189.222 348.584C189.094 348.84 188.902 349.032 188.646 349.16C188.432 349.245 188.326 349.203 188.326 349.032C188.326 348.861 188.347 348.669 188.39 348.456C188.432 348.243 188.454 348.051 188.454 347.88C188.454 347.155 188.326 346.515 188.07 345.96C187.856 345.363 187.536 344.936 187.11 344.68C186.683 344.381 186.235 344.232 185.766 344.232C185.083 344.232 184.422 344.509 183.782 345.064C183.142 345.576 182.822 346.259 182.822 347.112C182.822 347.197 182.822 347.304 182.822 347.432C182.822 347.56 182.843 347.667 182.885 347.752C183.056 348.435 183.568 349.203 184.422 350.056C185.275 350.909 185.936 351.656 186.406 352.296C187.216 353.405 187.622 354.536 187.622 355.688C187.622 356.84 187.28 357.907 186.598 358.888C185.958 359.827 185.083 360.573 183.974 361.128C182.907 361.725 181.734 362.024 180.454 362.024ZM194.049 361.192C193.622 361.192 193.259 361.107 192.961 360.936C192.662 360.765 192.513 360.445 192.513 359.976C192.513 359.379 192.662 358.675 192.961 357.864C193.302 357.053 193.665 356.243 194.049 355.432C194.433 354.621 194.753 353.96 195.009 353.448C195.222 353.064 195.499 352.467 195.841 351.656C196.225 350.803 196.609 349.928 196.993 349.032C197.419 348.093 197.761 347.304 198.017 346.664C198.315 346.024 198.465 345.704 198.465 345.704C198.081 346.131 197.569 346.728 196.929 347.496C196.331 348.264 195.67 349.075 194.945 349.928C194.262 350.739 193.622 351.507 193.025 352.232C192.47 352.957 192.065 353.491 191.809 353.832C191.681 354.003 191.574 354.088 191.489 354.088C191.403 354.088 191.361 353.981 191.361 353.768C191.361 353.427 191.467 353.107 191.681 352.808C192.193 352.168 192.811 351.4 193.536 350.504C194.262 349.565 194.987 348.627 195.713 347.688C196.481 346.749 197.142 345.917 197.697 345.192C197.355 345.192 196.907 345.213 196.353 345.256C195.841 345.299 195.371 345.363 194.945 345.448C194.518 345.491 194.283 345.512 194.241 345.512C194.027 345.512 194.049 345.341 194.305 345C194.561 344.659 194.902 344.317 195.329 343.976C195.755 343.635 196.075 343.464 196.289 343.464C196.331 343.464 196.673 343.485 197.312 343.528C197.953 343.528 198.422 343.528 198.72 343.528C199.574 342.376 200.406 341.053 201.217 339.56C202.07 338.067 202.902 336.424 203.713 334.632C204.054 334.589 204.63 334.355 205.441 333.928C206.294 333.459 206.955 332.989 207.425 332.52C207.638 332.307 207.809 332.2 207.937 332.2C208.193 332.2 208.193 332.371 207.937 332.712C207.638 333.053 207.126 333.779 206.401 334.888C205.675 335.955 204.865 337.256 203.969 338.792C203.073 340.285 202.219 341.864 201.409 343.528H206.593C207.062 343.528 207.297 343.592 207.297 343.72C207.297 343.891 206.977 344.061 206.337 344.232C205.611 344.445 204.843 344.573 204.033 344.616C203.265 344.659 202.539 344.744 201.857 344.872C201.217 345 200.747 345.277 200.449 345.704C200.193 346.003 199.83 346.643 199.361 347.624C198.891 348.605 198.379 349.736 197.825 351.016C197.313 352.253 196.865 353.512 196.481 354.792C196.097 356.029 195.862 357.075 195.777 357.928V358.184C195.777 358.525 195.883 358.803 196.097 359.016C196.31 359.229 196.523 359.336 196.737 359.336C197.291 359.336 197.995 358.995 198.849 358.312C199.745 357.629 200.662 356.819 201.601 355.88C202.539 354.899 203.35 354.003 204.033 353.192C204.331 352.851 204.587 352.531 204.801 352.232C205.057 351.933 205.206 351.741 205.249 351.656C205.334 351.827 205.377 351.955 205.377 352.04C205.377 352.296 205.291 352.573 205.121 352.872C204.993 353.171 204.843 353.427 204.673 353.64C203.862 354.707 202.881 355.837 201.729 357.032C200.577 358.184 199.339 359.165 198.017 359.976C196.737 360.787 195.414 361.192 194.049 361.192ZM205.2 361.128C204.517 361.128 203.899 361 203.344 360.744C202.832 360.445 202.576 359.827 202.576 358.888C202.576 357.395 202.96 355.901 203.728 354.408C204.496 352.872 205.285 351.528 206.096 350.376C206.821 349.395 207.632 348.477 208.528 347.624C209.467 346.728 210.469 345.96 211.536 345.32C212.219 344.893 213.136 344.445 214.288 343.976C215.483 343.464 216.485 343.208 217.296 343.208C217.979 343.208 218.576 343.4 219.088 343.784C219.6 344.125 219.856 344.765 219.856 345.704C219.856 347.155 219.472 348.648 218.704 350.184C217.979 351.677 217.211 353 216.4 354.152C216.016 354.664 215.632 355.155 215.248 355.624C214.864 356.051 214.437 356.499 213.968 356.968C215.547 356.968 216.997 356.52 218.32 355.624C219.643 354.685 220.795 353.555 221.776 352.232L221.904 352.104C222.032 352.104 222.096 352.232 222.096 352.488C222.096 352.787 222.011 353.064 221.84 353.32C220.987 354.515 219.92 355.581 218.64 356.52C217.36 357.416 215.909 357.864 214.288 357.864C214.117 357.864 213.947 357.864 213.776 357.864C213.605 357.864 213.435 357.843 213.264 357.8C210.875 360.019 208.187 361.128 205.2 361.128ZM206.864 360.04C207.461 360.04 208.101 359.827 208.784 359.4C209.509 358.973 210.064 358.568 210.448 358.184C211.173 357.459 211.835 356.691 212.432 355.88C213.029 355.027 213.584 354.173 214.096 353.32C214.693 352.296 215.291 351.08 215.888 349.672C216.485 348.264 216.784 346.941 216.784 345.704C216.784 344.723 216.443 344.232 215.76 344.232C215.205 344.232 214.523 344.467 213.712 344.936C212.944 345.405 212.368 345.832 211.984 346.216C210.533 347.709 209.317 349.331 208.336 351.08C207.781 352.061 207.184 353.213 206.544 354.536C205.904 355.859 205.584 357.075 205.584 358.184C205.584 358.355 205.584 358.525 205.584 358.696C205.627 358.824 205.669 358.973 205.712 359.144C205.883 359.741 206.267 360.04 206.864 360.04ZM230.33 383.272C228.708 383.272 227.023 382.909 225.274 382.184C223.567 381.501 222.351 380.392 221.626 378.856C221.327 378.301 221.135 377.704 221.049 377.064C221.007 376.467 220.986 375.869 220.986 375.272V374.568C220.986 374.227 221.028 373.907 221.114 373.608C221.199 373.352 221.412 373.224 221.754 373.224C221.839 373.224 221.882 373.267 221.882 373.352C221.882 373.608 221.86 373.864 221.818 374.12C221.775 374.376 221.754 374.653 221.754 374.952C221.754 376.915 222.372 378.408 223.61 379.432C224.89 380.456 226.468 380.968 228.345 380.968C231.034 380.968 233.508 380.307 235.77 378.984C238.031 377.661 240.079 375.848 241.914 373.544C243.706 371.325 245.156 369.149 246.266 367.016C247.418 364.925 248.42 362.792 249.274 360.616C250.127 358.44 251.002 356.2 251.898 353.896C250.788 355.56 249.252 357.096 247.29 358.504C245.327 359.869 243.194 360.957 240.89 361.768C238.628 362.621 236.431 363.048 234.298 363.048C232.036 363.048 229.903 362.643 227.898 361.832C225.935 361.064 224.356 359.891 223.161 358.312C221.967 356.733 221.37 354.749 221.37 352.36C221.37 349.587 221.903 346.877 222.97 344.232C224.036 341.587 225.466 339.133 227.258 336.872C229.05 334.568 231.055 332.584 233.274 330.92C235.236 329.427 237.498 328.211 240.058 327.272C242.66 326.333 245.242 325.864 247.802 325.864C248.868 325.864 249.871 325.949 250.81 326.12C251.748 326.248 252.708 326.547 253.69 327.016C254.543 327.4 255.226 327.891 255.738 328.488C256.25 329.043 256.506 329.683 256.506 330.408C256.506 330.493 256.506 330.6 256.506 330.728C256.506 330.856 256.484 330.963 256.442 331.048C256.271 331.731 255.866 332.52 255.226 333.416C254.628 334.269 254.159 335.165 253.818 336.104C253.775 336.275 253.54 336.424 253.114 336.552C252.687 336.637 252.516 336.595 252.602 336.424C252.943 335.869 253.199 335.187 253.37 334.376C253.583 333.565 253.69 332.755 253.69 331.944C253.69 331.347 253.626 330.792 253.498 330.28C253.412 329.725 253.242 329.256 252.986 328.872C252.559 328.104 251.898 327.571 251.002 327.272C250.106 326.973 249.146 326.824 248.122 326.824C247.14 326.824 246.159 326.931 245.178 327.144C244.196 327.357 243.343 327.592 242.618 327.848C240.143 328.744 237.775 330.152 235.514 332.072C233.508 333.821 231.716 335.848 230.138 338.152C228.602 340.456 227.386 342.824 226.49 345.256C225.594 347.688 225.146 350.013 225.146 352.232C225.146 354.493 225.572 356.328 226.426 357.736C227.322 359.144 228.495 360.189 229.946 360.872C231.396 361.512 232.954 361.832 234.618 361.832C238.074 361.832 241.103 361.043 243.706 359.464C246.351 357.843 248.591 355.731 250.426 353.128C252.26 350.525 253.668 347.731 254.65 344.744H248.058C247.546 344.744 246.842 344.787 245.946 344.872C245.05 344.915 244.132 345.064 243.194 345.32C242.255 345.533 241.466 345.896 240.826 346.408C240.186 346.92 239.866 347.624 239.866 348.52C239.866 348.819 239.908 349.139 239.994 349.48C240.079 349.779 240.143 350.013 240.186 350.184L239.61 350.568C239.311 350.013 238.948 349.437 238.522 348.84C238.138 348.2 237.924 347.688 237.882 347.304C237.839 346.963 237.86 346.515 237.946 345.96C238.031 345.405 238.308 344.915 238.778 344.488C239.29 344.019 240.015 343.72 240.954 343.592C241.935 343.421 242.938 343.336 243.962 343.336C244.9 343.336 245.796 343.379 246.65 343.464C247.503 343.507 248.186 343.528 248.698 343.528H260.858L260.154 344.296C259.556 344.296 258.895 344.403 258.17 344.616C257.444 344.787 256.847 345.171 256.378 345.768C255.439 346.963 254.714 348.307 254.201 349.8C253.732 351.293 253.242 352.872 252.729 354.536C251.876 357.565 251.044 360.531 250.234 363.432C249.423 366.376 248.335 369.149 246.97 371.752C245.647 374.397 243.706 376.829 241.146 379.048C239.78 380.2 238.074 381.181 236.026 381.992C233.978 382.845 232.079 383.272 230.33 383.272ZM259.013 361.128C258.33 361.128 257.711 361 257.157 360.744C256.645 360.445 256.389 359.827 256.389 358.888C256.389 357.395 256.773 355.901 257.541 354.408C258.309 352.872 259.098 351.528 259.909 350.376C260.634 349.395 261.445 348.477 262.341 347.624C263.279 346.728 264.282 345.96 265.349 345.32C266.031 344.893 266.949 344.445 268.101 343.976C269.295 343.464 270.298 343.208 271.109 343.208C271.791 343.208 272.389 343.4 272.901 343.784C273.413 344.125 273.669 344.765 273.669 345.704C273.669 347.155 273.285 348.648 272.517 350.184C271.791 351.677 271.023 353 270.213 354.152C269.829 354.664 269.445 355.155 269.061 355.624C268.677 356.051 268.25 356.499 267.781 356.968C269.359 356.968 270.81 356.52 272.133 355.624C273.455 354.685 274.607 353.555 275.589 352.232L275.717 352.104C275.845 352.104 275.909 352.232 275.909 352.488C275.909 352.787 275.823 353.064 275.653 353.32C274.799 354.515 273.733 355.581 272.453 356.52C271.173 357.416 269.722 357.864 268.101 357.864C267.93 357.864 267.759 357.864 267.589 357.864C267.418 357.864 267.247 357.843 267.077 357.8C264.687 360.019 261.999 361.128 259.013 361.128ZM260.677 360.04C261.274 360.04 261.914 359.827 262.597 359.4C263.322 358.973 263.877 358.568 264.26 358.184C264.986 357.459 265.647 356.691 266.245 355.88C266.842 355.027 267.397 354.173 267.909 353.32C268.506 352.296 269.103 351.08 269.701 349.672C270.298 348.264 270.597 346.941 270.597 345.704C270.597 344.723 270.255 344.232 269.573 344.232C269.018 344.232 268.335 344.467 267.525 344.936C266.757 345.405 266.181 345.832 265.797 346.216C264.346 347.709 263.13 349.331 262.149 351.08C261.594 352.061 260.997 353.213 260.357 354.536C259.717 355.859 259.397 357.075 259.397 358.184C259.397 358.355 259.397 358.525 259.397 358.696C259.439 358.824 259.482 358.973 259.525 359.144C259.695 359.741 260.079 360.04 260.677 360.04Z" fill="#C10016"/>
</g>
<defs>
<clipPath id="clip0_1921_545">
<rect width="390" height="424" fill="white"/>
</clipPath>
</defs>
</svg>
